<?xml version="1.0" standalone="no"?><!DOCTYPE svg PUBLIC "-//W3C//DTD SVG 1.1//EN" "http://www.w3.org/Graphics/SVG/1.1/DTD/svg11.dtd"><svg xmlns:xlink="http://www.w3.org/1999/xlink" version="1.1" class="highcharts-root" style="font-family:&quot;Lucida Grande&quot;, &quot;Lucida Sans Unicode&quot;, Arial, Helvetica, sans-serif;font-size:12px;" xmlns="http://www.w3.org/2000/svg" width="600" height="600" viewBox="0 0 600 600"><desc>Created with Highcharts 9.1.0</desc><defs><clipPath id="highcharts-pxh3op4-1153-"><rect x="0" y="0" width="580" height="340" fill="none"></rect></clipPath><clipPath id="highcharts-pxh3op4-1243-"><rect x="0" y="0" width="580" height="204" fill="none"></rect></clipPath><clipPath id="highcharts-pxh3op4-1333-"><rect x="0" y="0" width="580" height="68" fill="none"></rect></clipPath><clipPath id="highcharts-pxh3op4-1423-"><rect x="0" y="0" width="580" height="204" fill="none"></rect></clipPath><clipPath id="highcharts-pxh3op4-1500-"><rect x="0" y="0" width="580" height="68" fill="none"></rect></clipPath><clipPath id="highcharts-pxh3op4-1679-"><rect x="0" y="0" width="552" height="40" fill="none"></rect></clipPath></defs><rect fill="#ffffff" class="highcharts-background" x="0" y="0" width="600" height="600" rx="0" ry="0"></rect><rect fill="none" class="highcharts-plot-background" x="10" y="103" width="580" height="340"></rect><g class="highcharts-grid highcharts-xaxis-grid" data-z-index="1"><path fill="none" stroke-dasharray="none" data-z-index="1" class="highcharts-grid-line" d="M 84.5 103 L 84.5 307 M 84.5 307 L 84.5 375 M 84.5 375 L 84.5 443" opacity="1"></path><path fill="none" stroke-dasharray="none" data-z-index="1" class="highcharts-grid-line" d="M 175.5 103 L 175.5 307 M 175.5 307 L 175.5 375 M 175.5 375 L 175.5 443" opacity="1"></path><path fill="none" stroke-dasharray="none" data-z-index="1" class="highcharts-grid-line" d="M 266.5 103 L 266.5 307 M 266.5 307 L 266.5 375 M 266.5 375 L 266.5 443" opacity="1"></path><path fill="none" stroke-dasharray="none" data-z-index="1" class="highcharts-grid-line" d="M 358.5 103 L 358.5 307 M 358.5 307 L 358.5 375 M 358.5 375 L 358.5 443" opacity="1"></path><path fill="none" stroke-dasharray="none" data-z-index="1" class="highcharts-grid-line" d="M 449.5 103 L 449.5 307 M 449.5 307 L 449.5 375 M 449.5 375 L 449.5 443" opacity="1"></path><path fill="none" stroke-dasharray="none" data-z-index="1" class="highcharts-grid-line" d="M 540.5 103 L 540.5 307 M 540.5 307 L 540.5 375 M 540.5 375 L 540.5 443" opacity="1"></path></g><g class="highcharts-grid highcharts-xaxis-grid highcharts-navigator-xaxis" data-z-index="1"><path fill="none" stroke="#e6e6e6" stroke-width="1" stroke-dasharray="none" data-z-index="1" class="highcharts-grid-line" d="M 48.5 492 L 48.5 532" opacity="1"></path><path fill="none" stroke="#e6e6e6" stroke-width="1" stroke-dasharray="none" data-z-index="1" class="highcharts-grid-line" d="M 243.5 492 L 243.5 532" opacity="1"></path><path fill="none" stroke="#e6e6e6" stroke-width="1" stroke-dasharray="none" data-z-index="1" class="highcharts-grid-line" d="M 431.5 492 L 431.5 532" opacity="1"></path></g><g class="highcharts-grid highcharts-yaxis-grid" data-z-index="1"><path fill="none" stroke="#e6e6e6" stroke-width="1" stroke-dasharray="none" data-z-index="1" class="highcharts-grid-line" d="M 10 307.5 L 590 307.5" opacity="1"></path><path fill="none" stroke="#e6e6e6" stroke-width="1" stroke-dasharray="none" data-z-index="1" class="highcharts-grid-line" d="M 10 256.5 L 590 256.5" opacity="1"></path><path fill="none" stroke="#e6e6e6" stroke-width="1" stroke-dasharray="none" data-z-index="1" class="highcharts-grid-line" d="M 10 205.5 L 590 205.5" opacity="1"></path><path fill="none" stroke="#e6e6e6" stroke-width="1" stroke-dasharray="none" data-z-index="1" class="highcharts-grid-line" d="M 10 154.5 L 590 154.5" opacity="1"></path><path fill="none" stroke="#e6e6e6" stroke-width="1" stroke-dasharray="none" data-z-index="1" class="highcharts-grid-line" d="M 10 102.5 L 590 102.5" opacity="1"></path></g><g class="highcharts-grid highcharts-yaxis-grid" data-z-index="1"><path fill="none" stroke="#e6e6e6" stroke-width="1" stroke-dasharray="none" data-z-index="1" class="highcharts-grid-line" d="M 10 375.5 L 590 375.5" opacity="1"></path><path fill="none" stroke="#e6e6e6" stroke-width="1" stroke-dasharray="none" data-z-index="1" class="highcharts-grid-line" d="M 10 306.5 L 590 306.5" opacity="1"></path></g><g class="highcharts-grid highcharts-yaxis-grid" data-z-index="1"><path fill="none" stroke="#e6e6e6" stroke-width="1" stroke-dasharray="none" data-z-index="1" class="highcharts-grid-line" d="M 10 443.5 L 590 443.5" opacity="1"></path><path fill="none" stroke="#e6e6e6" stroke-width="1" stroke-dasharray="none" data-z-index="1" class="highcharts-grid-line" d="M 10 374.5 L 590 374.5" opacity="1"></path></g><g class="highcharts-grid highcharts-yaxis-grid highcharts-navigator-yaxis" data-z-index="1"><path fill="none" stroke-dasharray="none" data-z-index="1" class="highcharts-grid-line" d="M 24 523.5 L 576 523.5" opacity="1"></path><path fill="none" stroke-dasharray="none" data-z-index="1" class="highcharts-grid-line" d="M 24 495.5 L 576 495.5" opacity="1"></path></g><rect fill="none" class="highcharts-plot-border" data-z-index="1" x="10" y="103" width="580" height="340"></rect><g class="highcharts-axis highcharts-xaxis" data-z-index="2"><path fill="none" class="highcharts-tick" stroke="#ccd6eb" stroke-width="1" d="M 84.5 443 L 84.5 453" opacity="1"></path><path fill="none" class="highcharts-tick" stroke="#ccd6eb" stroke-width="1" d="M 175.5 443 L 175.5 453" opacity="1"></path><path fill="none" class="highcharts-tick" stroke="#ccd6eb" stroke-width="1" d="M 266.5 443 L 266.5 453" opacity="1"></path><path fill="none" class="highcharts-tick" stroke="#ccd6eb" stroke-width="1" d="M 358.5 443 L 358.5 453" opacity="1"></path><path fill="none" class="highcharts-tick" stroke="#ccd6eb" stroke-width="1" d="M 449.5 443 L 449.5 453" opacity="1"></path><path fill="none" class="highcharts-tick" stroke="#ccd6eb" stroke-width="1" d="M 540.5 443 L 540.5 453" opacity="1"></path><path fill="none" class="highcharts-axis-line" stroke="#ccd6eb" stroke-width="1" data-z-index="7" d="M 10 443.5 L 590 443.5"></path></g><g class="highcharts-axis highcharts-xaxis highcharts-navigator-xaxis" data-z-index="2"><path fill="none" class="highcharts-axis-line" data-z-index="7" d="M 24 532 L 576 532"></path></g><g class="highcharts-axis highcharts-yaxis" data-z-index="2"><path fill="none" class="highcharts-axis-line" data-z-index="7" d="M 590 103 L 590 307"></path></g><g class="highcharts-axis highcharts-yaxis" data-z-index="2"><path fill="none" class="highcharts-axis-line" data-z-index="7" d="M 590 307 L 590 375"></path></g><g class="highcharts-axis highcharts-yaxis" data-z-index="2"><path fill="none" class="highcharts-axis-line" data-z-index="7" d="M 590 375 L 590 443"></path></g><g class="highcharts-axis highcharts-yaxis highcharts-navigator-yaxis" data-z-index="2"><path fill="none" class="highcharts-axis-line" data-z-index="7" d="M 10 492 L 10 532"></path></g><g class="highcharts-scrollbar" data-z-index="3" transform="translate(10,533)"><rect fill="#f2f2f2" class="highcharts-scrollbar-track" x="0" rx="0" ry="0" height="14" width="580" stroke="#f2f2f2" stroke-width="1" y="-0.5"></rect><g transform="translate(14,-0.5)"><rect fill="#cccccc" class="highcharts-scrollbar-thumb" height="14" width="552" rx="0" ry="0" stroke="#cccccc" stroke-width="1"></rect><path fill="none" d="M -3 3.5 L -3 9.333333333333334 M 0 3.5 L 0 9.333333333333334 M 3 3.5 L 3 9.333333333333334" class="highcharts-scrollbar-rifles" stroke="#333333" stroke-width="1" transform="translate(275.5,0)"></path></g><g><rect fill="#e6e6e6" class="highcharts-scrollbar-button" stroke="#cccccc" stroke-width="1" x="-0.5" y="-0.5" width="14" height="14" rx="0" ry="0"></rect><path fill="#333333" d="M 8 4 L 8 10 L 5 7" class="highcharts-scrollbar-arrow"></path></g><g transform="translate(566,0)"><rect fill="#e6e6e6" class="highcharts-scrollbar-button" stroke="#cccccc" stroke-width="1" x="-0.5" y="-0.5" width="14" height="14" rx="0" ry="0"></rect><path fill="#333333" d="M 6 4 L 6 10 L 9 7" class="highcharts-scrollbar-arrow"></path></g></g><g class="highcharts-series-group" data-z-index="3"><g class="highcharts-series highcharts-series-0 highcharts-candlestick-series highcharts-color-0" data-z-index="0.1" opacity="1" transform="translate(10,103) scale(1 1)" clip-path="url(#highcharts-pxh3op4-1243-)"><path fill="#7cb5ec" stroke="#000000" stroke-width="1" opacity="1" d="M 0.5 92.5 L 0.5 82.5 L 4.5 82.5 L 4.5 92.5 Z M 2.5 82.5 L 2.5 82.5 M 2.5 92.5 L 2.5 92.5" class="highcharts-point highcharts-color-0 highcharts-point-down"></path><path fill="#ffffff" stroke="#000000" stroke-width="1" opacity="1" d="M 7.5 100.5 L 7.5 82.5 L 11.5 82.5 L 11.5 100.5 Z M 9.5 82.5 L 9.5 31 M 9.5 100.5 L 9.5 186" class="highcharts-point highcharts-color-0 highcharts-point-up"></path><path fill="#ffffff" stroke="#000000" stroke-width="1" opacity="1" d="M 13.5 173.5 L 13.5 163.5 L 17.5 163.5 L 17.5 173.5 Z M 15.5 163.5 L 15.5 153 M 15.5 173.5 L 15.5 194" class="highcharts-point highcharts-color-0 highcharts-point-up"></path><path fill="#7cb5ec" stroke="#000000" stroke-width="1" opacity="1" d="M 20.5 169.5 L 20.5 155.5 L 24.5 155.5 L 24.5 169.5 Z M 22.5 155.5 L 22.5 153 M 22.5 169.5 L 22.5 190" class="highcharts-point highcharts-color-0 highcharts-point-down"></path><path fill="#7cb5ec" stroke="#000000" stroke-width="1" opacity="1" d="M 26.5 153.5 L 26.5 153.5 L 30.5 153.5 L 30.5 153.5 Z M 28.5 153.5 L 28.5 153.5 M 28.5 153.5 L 28.5 182" class="highcharts-point highcharts-color-0 highcharts-point-down"></path><path fill="#7cb5ec" stroke="#000000" stroke-width="1" opacity="1" d="M 33.5 159.5 L 33.5 153.5 L 37.5 153.5 L 37.5 159.5 Z M 35.5 153.5 L 35.5 153.5 M 35.5 159.5 L 35.5 159.5" class="highcharts-point highcharts-color-0 highcharts-point-down"></path><path fill="#7cb5ec" stroke="#000000" stroke-width="1" opacity="1" d="M 39.5 157.5 L 39.5 153.5 L 43.5 153.5 L 43.5 157.5 Z M 41.5 153.5 L 41.5 153.5 M 41.5 157.5 L 41.5 160" class="highcharts-point highcharts-color-0 highcharts-point-down"></path><path fill="#7cb5ec" stroke="#000000" stroke-width="1" opacity="1" d="M 46.5 153.5 L 46.5 153.5 L 50.5 153.5 L 50.5 153.5 Z M 48.5 153.5 L 48.5 153.5 M 48.5 153.5 L 48.5 159" class="highcharts-point highcharts-color-0 highcharts-point-down"></path><path fill="#7cb5ec" stroke="#000000" stroke-width="1" opacity="1" d="M 52.5 157.5 L 52.5 156.5 L 56.5 156.5 L 56.5 157.5 Z M 54.5 156.5 L 54.5 153 M 54.5 157.5 L 54.5 159" class="highcharts-point highcharts-color-0 highcharts-point-down"></path><path fill="#7cb5ec" stroke="#000000" stroke-width="1" opacity="1" d="M 59.5 153.5 L 59.5 153.5 L 63.5 153.5 L 63.5 153.5 Z M 61.5 153.5 L 61.5 153.5 M 61.5 153.5 L 61.5 155" class="highcharts-point highcharts-color-0 highcharts-point-down"></path><path fill="#7cb5ec" stroke="#000000" stroke-width="1" opacity="1" d="M 65.5 153.5 L 65.5 153.5 L 69.5 153.5 L 69.5 153.5 Z M 67.5 153.5 L 67.5 153.5 M 67.5 153.5 L 67.5 155" class="highcharts-point highcharts-color-0 highcharts-point-down"></path><path fill="#7cb5ec" stroke="#000000" stroke-width="1" opacity="1" d="M 72.5 153.5 L 72.5 153.5 L 76.5 153.5 L 76.5 153.5 Z M 74.5 153.5 L 74.5 143 M 74.5 153.5 L 74.5 167" class="highcharts-point highcharts-color-0 highcharts-point-down"></path><path fill="#7cb5ec" stroke="#000000" stroke-width="1" opacity="1" d="M 78.5 153.5 L 78.5 153.5 L 82.5 153.5 L 82.5 153.5 Z M 80.5 153.5 L 80.5 135 M 80.5 153.5 L 80.5 171" class="highcharts-point highcharts-color-0 highcharts-point-down"></path><path fill="#7cb5ec" stroke="#000000" stroke-width="1" opacity="1" d="M 85.5 153.5 L 85.5 148.5 L 89.5 148.5 L 89.5 153.5 Z M 87.5 148.5 L 87.5 137 M 87.5 153.5 L 87.5 159" class="highcharts-point highcharts-color-0 highcharts-point-down"></path><path fill="#7cb5ec" stroke="#000000" stroke-width="1" opacity="1" d="M 91.5 143.5 L 91.5 143.5 L 95.5 143.5 L 95.5 143.5 Z M 93.5 143.5 L 93.5 133 M 93.5 143.5 L 93.5 159" class="highcharts-point highcharts-color-0 highcharts-point-down"></path><path fill="#7cb5ec" stroke="#000000" stroke-width="1" opacity="1" d="M 98.5 156.5 L 98.5 135.5 L 102.5 135.5 L 102.5 156.5 Z M 100.5 135.5 L 100.5 133 M 100.5 156.5 L 100.5 157" class="highcharts-point highcharts-color-0 highcharts-point-down"></path><path fill="#ffffff" stroke="#000000" stroke-width="1" opacity="1" d="M 105.5 158.5 L 105.5 152.5 L 109.5 152.5 L 109.5 158.5 Z M 107.5 152.5 L 107.5 133 M 107.5 158.5 L 107.5 163" class="highcharts-point highcharts-color-0 highcharts-point-up"></path><path fill="#7cb5ec" stroke="#000000" stroke-width="1" opacity="1" d="M 111.5 133.5 L 111.5 133.5 L 115.5 133.5 L 115.5 133.5 Z M 113.5 133.5 L 113.5 133.5 M 113.5 133.5 L 113.5 168" class="highcharts-point highcharts-color-0 highcharts-point-down"></path><path fill="#ffffff" stroke="#000000" stroke-width="1" opacity="1" d="M 118.5 135.5 L 118.5 133.5 L 122.5 133.5 L 122.5 135.5 Z M 120.5 133.5 L 120.5 129 M 120.5 135.5 L 120.5 145" class="highcharts-point highcharts-color-0 highcharts-point-up"></path><path fill="#7cb5ec" stroke="#000000" stroke-width="1" opacity="1" d="M 124.5 139.5 L 124.5 137.5 L 128.5 137.5 L 128.5 139.5 Z M 126.5 137.5 L 126.5 133 M 126.5 139.5 L 126.5 155" class="highcharts-point highcharts-color-0 highcharts-point-down"></path><path fill="#ffffff" stroke="#000000" stroke-width="1" opacity="1" d="M 131.5 134.5 L 131.5 133.5 L 135.5 133.5 L 135.5 134.5 Z M 133.5 133.5 L 133.5 131 M 133.5 134.5 L 133.5 139" class="highcharts-point highcharts-color-0 highcharts-point-up"></path><path fill="#7cb5ec" stroke="#000000" stroke-width="1" opacity="1" d="M 137.5 153.5 L 137.5 137.5 L 141.5 137.5 L 141.5 153.5 Z M 139.5 137.5 L 139.5 133 M 139.5 153.5 L 139.5 155" class="highcharts-point highcharts-color-0 highcharts-point-down"></path><path fill="#ffffff" stroke="#000000" stroke-width="1" opacity="1" d="M 144.5 135.5 L 144.5 135.5 L 148.5 135.5 L 148.5 135.5 Z M 146.5 135.5 L 146.5 131 M 146.5 135.5 L 146.5 153" class="highcharts-point highcharts-color-0 highcharts-point-up"></path><path fill="#7cb5ec" stroke="#000000" stroke-width="1" opacity="1" d="M 150.5 135.5 L 150.5 133.5 L 154.5 133.5 L 154.5 135.5 Z M 152.5 133.5 L 152.5 133.5 M 152.5 135.5 L 152.5 139" class="highcharts-point highcharts-color-0 highcharts-point-down"></path><path fill="#ffffff" stroke="#000000" stroke-width="1" opacity="1" d="M 157.5 133.5 L 157.5 124.5 L 161.5 124.5 L 161.5 133.5 Z M 159.5 124.5 L 159.5 122 M 159.5 133.5 L 159.5 147" class="highcharts-point highcharts-color-0 highcharts-point-up"></path><path fill="#7cb5ec" stroke="#000000" stroke-width="1" opacity="1" d="M 163.5 133.5 L 163.5 126.5 L 167.5 126.5 L 167.5 133.5 Z M 165.5 126.5 L 165.5 112 M 165.5 133.5 L 165.5 147" class="highcharts-point highcharts-color-0 highcharts-point-down"></path><path fill="#7cb5ec" stroke="#000000" stroke-width="1" opacity="1" d="M 170.5 114.5 L 170.5 112.5 L 174.5 112.5 L 174.5 114.5 Z M 172.5 112.5 L 172.5 104 M 172.5 114.5 L 172.5 135" class="highcharts-point highcharts-color-0 highcharts-point-down"></path><path fill="#ffffff" stroke="#000000" stroke-width="1" opacity="1" d="M 176.5 112.5 L 176.5 92.5 L 180.5 92.5 L 180.5 112.5 Z M 178.5 92.5 L 178.5 92.5 M 178.5 112.5 L 178.5 133" class="highcharts-point highcharts-color-0 highcharts-point-up"></path><path fill="#7cb5ec" stroke="#000000" stroke-width="1" opacity="1" d="M 183.5 102.5 L 183.5 102.5 L 187.5 102.5 L 187.5 102.5 Z M 185.5 102.5 L 185.5 92 M 185.5 102.5 L 185.5 133" class="highcharts-point highcharts-color-0 highcharts-point-down"></path><path fill="#ffffff" stroke="#000000" stroke-width="1" opacity="1" d="M 189.5 124.5 L 189.5 102.5 L 193.5 102.5 L 193.5 124.5 Z M 191.5 102.5 L 191.5 102.5 M 191.5 124.5 L 191.5 132" class="highcharts-point highcharts-color-0 highcharts-point-up"></path><path fill="#7cb5ec" stroke="#000000" stroke-width="1" opacity="1" d="M 196.5 133.5 L 196.5 133.5 L 200.5 133.5 L 200.5 133.5 Z M 198.5 133.5 L 198.5 128 M 198.5 133.5 L 198.5 143" class="highcharts-point highcharts-color-0 highcharts-point-down"></path><path fill="#7cb5ec" stroke="#000000" stroke-width="1" opacity="1" d="M 202.5 143.5 L 202.5 133.5 L 206.5 133.5 L 206.5 143.5 Z M 204.5 133.5 L 204.5 133.5 M 204.5 143.5 L 204.5 143.5" class="highcharts-point highcharts-color-0 highcharts-point-down"></path><path fill="#7cb5ec" stroke="#000000" stroke-width="1" opacity="1" d="M 209.5 133.5 L 209.5 112.5 L 213.5 112.5 L 213.5 133.5 Z M 211.5 112.5 L 211.5 112.5 M 211.5 133.5 L 211.5 137" class="highcharts-point highcharts-color-0 highcharts-point-down"></path><path fill="#ffffff" stroke="#000000" stroke-width="1" opacity="1" d="M 215.5 133.5 L 215.5 122.5 L 219.5 122.5 L 219.5 133.5 Z M 217.5 122.5 L 217.5 112 M 217.5 133.5 L 217.5 145" class="highcharts-point highcharts-color-0 highcharts-point-up"></path><path fill="#ffffff" stroke="#000000" stroke-width="1" opacity="1" d="M 222.5 114.5 L 222.5 112.5 L 226.5 112.5 L 226.5 114.5 Z M 224.5 112.5 L 224.5 112.5 M 224.5 114.5 L 224.5 133" class="highcharts-point highcharts-color-0 highcharts-point-up"></path><path fill="#7cb5ec" stroke="#000000" stroke-width="1" opacity="1" d="M 228.5 116.5 L 228.5 114.5 L 232.5 114.5 L 232.5 116.5 Z M 230.5 114.5 L 230.5 112 M 230.5 116.5 L 230.5 148" class="highcharts-point highcharts-color-0 highcharts-point-down"></path><path fill="#7cb5ec" stroke="#000000" stroke-width="1" opacity="1" d="M 235.5 133.5 L 235.5 129.5 L 239.5 129.5 L 239.5 133.5 Z M 237.5 129.5 L 237.5 112 M 237.5 133.5 L 237.5 136" class="highcharts-point highcharts-color-0 highcharts-point-down"></path><path fill="#ffffff" stroke="#000000" stroke-width="1" opacity="1" d="M 241.5 122.5 L 241.5 113.5 L 245.5 113.5 L 245.5 122.5 Z M 243.5 113.5 L 243.5 112 M 243.5 122.5 L 243.5 143" class="highcharts-point highcharts-color-0 highcharts-point-up"></path><path fill="#7cb5ec" stroke="#000000" stroke-width="1" opacity="1" d="M 248.5 116.5 L 248.5 112.5 L 252.5 112.5 L 252.5 116.5 Z M 250.5 112.5 L 250.5 112.5 M 250.5 116.5 L 250.5 126" class="highcharts-point highcharts-color-0 highcharts-point-down"></path><path fill="#7cb5ec" stroke="#000000" stroke-width="1" opacity="1" d="M 254.5 126.5 L 254.5 112.5 L 258.5 112.5 L 258.5 126.5 Z M 256.5 112.5 L 256.5 112.5 M 256.5 126.5 L 256.5 133" class="highcharts-point highcharts-color-0 highcharts-point-down"></path><path fill="#ffffff" stroke="#000000" stroke-width="1" opacity="1" d="M 261.5 122.5 L 261.5 116.5 L 265.5 116.5 L 265.5 122.5 Z M 263.5 116.5 L 263.5 112 M 263.5 122.5 L 263.5 136" class="highcharts-point highcharts-color-0 highcharts-point-up"></path><path fill="#7cb5ec" stroke="#000000" stroke-width="1" opacity="1" d="M 267.5 116.5 L 267.5 115.5 L 271.5 115.5 L 271.5 116.5 Z M 269.5 115.5 L 269.5 112 M 269.5 116.5 L 269.5 124" class="highcharts-point highcharts-color-0 highcharts-point-down"></path><path fill="#7cb5ec" stroke="#000000" stroke-width="1" opacity="1" d="M 274.5 114.5 L 274.5 112.5 L 278.5 112.5 L 278.5 114.5 Z M 276.5 112.5 L 276.5 112.5 M 276.5 114.5 L 276.5 126" class="highcharts-point highcharts-color-0 highcharts-point-down"></path><path fill="#ffffff" stroke="#000000" stroke-width="1" opacity="1" d="M 280.5 118.5 L 280.5 115.5 L 284.5 115.5 L 284.5 118.5 Z M 282.5 115.5 L 282.5 115.5 M 282.5 118.5 L 282.5 123" class="highcharts-point highcharts-color-0 highcharts-point-up"></path><path fill="#7cb5ec" stroke="#000000" stroke-width="1" opacity="1" d="M 287.5 113.5 L 287.5 112.5 L 291.5 112.5 L 291.5 113.5 Z M 289.5 112.5 L 289.5 105 M 289.5 113.5 L 289.5 126" class="highcharts-point highcharts-color-0 highcharts-point-down"></path><path fill="#ffffff" stroke="#000000" stroke-width="1" opacity="1" d="M 294.5 113.5 L 294.5 112.5 L 298.5 112.5 L 298.5 113.5 Z M 296.5 112.5 L 296.5 112.5 M 296.5 113.5 L 296.5 123" class="highcharts-point highcharts-color-0 highcharts-point-up"></path><path fill="#7cb5ec" stroke="#000000" stroke-width="1" opacity="1" d="M 300.5 119.5 L 300.5 114.5 L 304.5 114.5 L 304.5 119.5 Z M 302.5 114.5 L 302.5 112 M 302.5 119.5 L 302.5 119.5" class="highcharts-point highcharts-color-0 highcharts-point-down"></path><path fill="#7cb5ec" stroke="#000000" stroke-width="1" opacity="1" d="M 307.5 112.5 L 307.5 112.5 L 311.5 112.5 L 311.5 112.5 Z M 309.5 112.5 L 309.5 112.5 M 309.5 112.5 L 309.5 118" class="highcharts-point highcharts-color-0 highcharts-point-down"></path><path fill="#7cb5ec" stroke="#000000" stroke-width="1" opacity="1" d="M 313.5 119.5 L 313.5 112.5 L 317.5 112.5 L 317.5 119.5 Z M 315.5 112.5 L 315.5 112.5 M 315.5 119.5 L 315.5 122" class="highcharts-point highcharts-color-0 highcharts-point-down"></path><path fill="#ffffff" stroke="#000000" stroke-width="1" opacity="1" d="M 320.5 114.5 L 320.5 112.5 L 324.5 112.5 L 324.5 114.5 Z M 322.5 112.5 L 322.5 112.5 M 322.5 114.5 L 322.5 120" class="highcharts-point highcharts-color-0 highcharts-point-up"></path><path fill="#7cb5ec" stroke="#000000" stroke-width="1" opacity="1" d="M 326.5 112.5 L 326.5 112.5 L 330.5 112.5 L 330.5 112.5 Z M 328.5 112.5 L 328.5 102 M 328.5 112.5 L 328.5 122" class="highcharts-point highcharts-color-0 highcharts-point-down"></path><path fill="#7cb5ec" stroke="#000000" stroke-width="1" opacity="1" d="M 333.5 106.5 L 333.5 106.5 L 337.5 106.5 L 337.5 106.5 Z M 335.5 106.5 L 335.5 102 M 335.5 106.5 L 335.5 126" class="highcharts-point highcharts-color-0 highcharts-point-down"></path><path fill="#ffffff" stroke="#000000" stroke-width="1" opacity="1" d="M 339.5 110.5 L 339.5 106.5 L 343.5 106.5 L 343.5 110.5 Z M 341.5 106.5 L 341.5 106.5 M 341.5 110.5 L 341.5 116" class="highcharts-point highcharts-color-0 highcharts-point-up"></path><path fill="#ffffff" stroke="#000000" stroke-width="1" opacity="1" d="M 346.5 113.5 L 346.5 102.5 L 350.5 102.5 L 350.5 113.5 Z M 348.5 102.5 L 348.5 102.5 M 348.5 113.5 L 348.5 129" class="highcharts-point highcharts-color-0 highcharts-point-up"></path><path fill="#7cb5ec" stroke="#000000" stroke-width="1" opacity="1" d="M 352.5 104.5 L 352.5 92.5 L 356.5 92.5 L 356.5 104.5 Z M 354.5 92.5 L 354.5 82 M 354.5 104.5 L 354.5 124" class="highcharts-point highcharts-color-0 highcharts-point-down"></path><path fill="#7cb5ec" stroke="#000000" stroke-width="1" opacity="1" d="M 359.5 103.5 L 359.5 92.5 L 363.5 92.5 L 363.5 103.5 Z M 361.5 92.5 L 361.5 92.5 M 361.5 103.5 L 361.5 122" class="highcharts-point highcharts-color-0 highcharts-point-down"></path><path fill="#7cb5ec" stroke="#000000" stroke-width="1" opacity="1" d="M 365.5 102.5 L 365.5 94.5 L 369.5 94.5 L 369.5 102.5 Z M 367.5 94.5 L 367.5 92 M 367.5 102.5 L 367.5 114" class="highcharts-point highcharts-color-0 highcharts-point-down"></path><path fill="#7cb5ec" stroke="#000000" stroke-width="1" opacity="1" d="M 372.5 116.5 L 372.5 110.5 L 376.5 110.5 L 376.5 116.5 Z M 374.5 110.5 L 374.5 82 M 374.5 116.5 L 374.5 122" class="highcharts-point highcharts-color-0 highcharts-point-down"></path><path fill="#7cb5ec" stroke="#000000" stroke-width="1" opacity="1" d="M 378.5 102.5 L 378.5 102.5 L 382.5 102.5 L 382.5 102.5 Z M 380.5 102.5 L 380.5 88 M 380.5 102.5 L 380.5 106" class="highcharts-point highcharts-color-0 highcharts-point-down"></path><path fill="#7cb5ec" stroke="#000000" stroke-width="1" opacity="1" d="M 385.5 96.5 L 385.5 92.5 L 389.5 92.5 L 389.5 96.5 Z M 387.5 92.5 L 387.5 92.5 M 387.5 96.5 L 387.5 96.5" class="highcharts-point highcharts-color-0 highcharts-point-down"></path><path fill="#7cb5ec" stroke="#000000" stroke-width="1" opacity="1" d="M 391.5 94.5 L 391.5 92.5 L 395.5 92.5 L 395.5 94.5 Z M 393.5 92.5 L 393.5 92.5 M 393.5 94.5 L 393.5 97" class="highcharts-point highcharts-color-0 highcharts-point-down"></path><path fill="#7cb5ec" stroke="#000000" stroke-width="1" opacity="1" d="M 398.5 94.5 L 398.5 87.5 L 402.5 87.5 L 402.5 94.5 Z M 400.5 87.5 L 400.5 87.5 M 400.5 94.5 L 400.5 97" class="highcharts-point highcharts-color-0 highcharts-point-down"></path><path fill="#7cb5ec" stroke="#000000" stroke-width="1" opacity="1" d="M 404.5 92.5 L 404.5 92.5 L 408.5 92.5 L 408.5 92.5 Z M 406.5 92.5 L 406.5 88 M 406.5 92.5 L 406.5 96" class="highcharts-point highcharts-color-0 highcharts-point-down"></path><path fill="#7cb5ec" stroke="#000000" stroke-width="1" opacity="1" d="M 411.5 92.5 L 411.5 92.5 L 415.5 92.5 L 415.5 92.5 Z M 413.5 92.5 L 413.5 92.5 M 413.5 92.5 L 413.5 96" class="highcharts-point highcharts-color-0 highcharts-point-down"></path><path fill="#7cb5ec" stroke="#000000" stroke-width="1" opacity="1" d="M 417.5 92.5 L 417.5 92.5 L 421.5 92.5 L 421.5 92.5 Z M 419.5 92.5 L 419.5 92.5 M 419.5 92.5 L 419.5 92" class="highcharts-point highcharts-color-0 highcharts-point-down"></path><path fill="#7cb5ec" stroke="#000000" stroke-width="1" opacity="1" d="M 424.5 92.5 L 424.5 92.5 L 428.5 92.5 L 428.5 92.5 Z M 426.5 92.5 L 426.5 92.5 M 426.5 92.5 L 426.5 94" class="highcharts-point highcharts-color-0 highcharts-point-down"></path><path fill="#7cb5ec" stroke="#000000" stroke-width="1" opacity="1" d="M 430.5 92.5 L 430.5 88.5 L 434.5 88.5 L 434.5 92.5 Z M 432.5 88.5 L 432.5 82 M 432.5 92.5 L 432.5 102" class="highcharts-point highcharts-color-0 highcharts-point-down"></path><path fill="#7cb5ec" stroke="#000000" stroke-width="1" opacity="1" d="M 437.5 92.5 L 437.5 88.5 L 441.5 88.5 L 441.5 92.5 Z M 439.5 88.5 L 439.5 82 M 439.5 92.5 L 439.5 96" class="highcharts-point highcharts-color-0 highcharts-point-down"></path><path fill="#7cb5ec" stroke="#000000" stroke-width="1" opacity="1" d="M 443.5 82.5 L 443.5 82.5 L 447.5 82.5 L 447.5 82.5 Z M 445.5 82.5 L 445.5 82.5 M 445.5 82.5 L 445.5 102" class="highcharts-point highcharts-color-0 highcharts-point-down"></path><path fill="#7cb5ec" stroke="#000000" stroke-width="1" opacity="1" d="M 450.5 84.5 L 450.5 82.5 L 454.5 82.5 L 454.5 84.5 Z M 452.5 82.5 L 452.5 82.5 M 452.5 84.5 L 452.5 88" class="highcharts-point highcharts-color-0 highcharts-point-down"></path><path fill="#7cb5ec" stroke="#000000" stroke-width="1" opacity="1" d="M 456.5 72.5 L 456.5 71.5 L 460.5 71.5 L 460.5 72.5 Z M 458.5 71.5 L 458.5 71.5 M 458.5 72.5 L 458.5 102" class="highcharts-point highcharts-color-0 highcharts-point-down"></path><path fill="#ffffff" stroke="#000000" stroke-width="1" opacity="1" d="M 463.5 94.5 L 463.5 75.5 L 467.5 75.5 L 467.5 94.5 Z M 465.5 75.5 L 465.5 61 M 465.5 94.5 L 465.5 104" class="highcharts-point highcharts-color-0 highcharts-point-up"></path><path fill="#7cb5ec" stroke="#000000" stroke-width="1" opacity="1" d="M 469.5 61.5 L 469.5 61.5 L 473.5 61.5 L 473.5 61.5 Z M 471.5 61.5 L 471.5 61.5 M 471.5 61.5 L 471.5 92" class="highcharts-point highcharts-color-0 highcharts-point-down"></path><path fill="#ffffff" stroke="#000000" stroke-width="1" opacity="1" d="M 476.5 71.5 L 476.5 61.5 L 480.5 61.5 L 480.5 71.5 Z M 478.5 61.5 L 478.5 61.5 M 478.5 71.5 L 478.5 82" class="highcharts-point highcharts-color-0 highcharts-point-up"></path><path fill="#7cb5ec" stroke="#000000" stroke-width="1" opacity="1" d="M 483.5 71.5 L 483.5 71.5 L 487.5 71.5 L 487.5 71.5 Z M 485.5 71.5 L 485.5 71.5 M 485.5 71.5 L 485.5 73" class="highcharts-point highcharts-color-0 highcharts-point-down"></path><path fill="#7cb5ec" stroke="#000000" stroke-width="1" opacity="1" d="M 489.5 66.5 L 489.5 51.5 L 493.5 51.5 L 493.5 66.5 Z M 491.5 51.5 L 491.5 51.5 M 491.5 66.5 L 491.5 88" class="highcharts-point highcharts-color-0 highcharts-point-down"></path><path fill="#7cb5ec" stroke="#000000" stroke-width="1" opacity="1" d="M 496.5 61.5 L 496.5 51.5 L 500.5 51.5 L 500.5 61.5 Z M 498.5 51.5 L 498.5 51.5 M 498.5 61.5 L 498.5 82" class="highcharts-point highcharts-color-0 highcharts-point-down"></path><path fill="#7cb5ec" stroke="#000000" stroke-width="1" opacity="1" d="M 502.5 61.5 L 502.5 61.5 L 506.5 61.5 L 506.5 61.5 Z M 504.5 61.5 L 504.5 51 M 504.5 61.5 L 504.5 82" class="highcharts-point highcharts-color-0 highcharts-point-down"></path><path fill="#7cb5ec" stroke="#000000" stroke-width="1" opacity="1" d="M 509.5 61.5 L 509.5 61.5 L 513.5 61.5 L 513.5 61.5 Z M 511.5 61.5 L 511.5 61.5 M 511.5 61.5 L 511.5 63" class="highcharts-point highcharts-color-0 highcharts-point-down"></path><path fill="#7cb5ec" stroke="#000000" stroke-width="1" opacity="1" d="M 515.5 71.5 L 515.5 52.5 L 519.5 52.5 L 519.5 71.5 Z M 517.5 52.5 L 517.5 51 M 517.5 71.5 L 517.5 74" class="highcharts-point highcharts-color-0 highcharts-point-down"></path><path fill="#ffffff" stroke="#000000" stroke-width="1" opacity="1" d="M 522.5 61.5 L 522.5 51.5 L 526.5 51.5 L 526.5 61.5 Z M 524.5 51.5 L 524.5 51.5 M 524.5 61.5 L 524.5 71" class="highcharts-point highcharts-color-0 highcharts-point-up"></path><path fill="#7cb5ec" stroke="#000000" stroke-width="1" opacity="1" d="M 528.5 59.5 L 528.5 51.5 L 532.5 51.5 L 532.5 59.5 Z M 530.5 51.5 L 530.5 41 M 530.5 59.5 L 530.5 82" class="highcharts-point highcharts-color-0 highcharts-point-down"></path><path fill="#ffffff" stroke="#000000" stroke-width="1" opacity="1" d="M 535.5 62.5 L 535.5 51.5 L 539.5 51.5 L 539.5 62.5 Z M 537.5 51.5 L 537.5 51.5 M 537.5 62.5 L 537.5 71" class="highcharts-point highcharts-color-0 highcharts-point-up"></path><path fill="#7cb5ec" stroke="#000000" stroke-width="1" opacity="1" d="M 541.5 52.5 L 541.5 51.5 L 545.5 51.5 L 545.5 52.5 Z M 543.5 51.5 L 543.5 51.5 M 543.5 52.5 L 543.5 71" class="highcharts-point highcharts-color-0 highcharts-point-down"></path><path fill="#7cb5ec" stroke="#000000" stroke-width="1" opacity="1" d="M 548.5 51.5 L 548.5 51.5 L 552.5 51.5 L 552.5 51.5 Z M 550.5 51.5 L 550.5 51.5 M 550.5 51.5 L 550.5 71" class="highcharts-point highcharts-color-0 highcharts-point-down"></path><path fill="#ffffff" stroke="#000000" stroke-width="1" opacity="1" d="M 554.5 57.5 L 554.5 52.5 L 558.5 52.5 L 558.5 57.5 Z M 556.5 52.5 L 556.5 51 M 556.5 57.5 L 556.5 63" class="highcharts-point highcharts-color-0 highcharts-point-up"></path><path fill="#7cb5ec" stroke="#000000" stroke-width="1" opacity="1" d="M 561.5 57.5 L 561.5 53.5 L 565.5 53.5 L 565.5 57.5 Z M 563.5 53.5 L 563.5 51 M 563.5 57.5 L 563.5 71" class="highcharts-point highcharts-color-0 highcharts-point-down"></path><path fill="#ffffff" stroke="#000000" stroke-width="1" opacity="1" d="M 567.5 71.5 L 567.5 53.5 L 571.5 53.5 L 571.5 71.5 Z M 569.5 53.5 L 569.5 51 M 569.5 71.5 L 569.5 71.5" class="highcharts-point highcharts-color-0 highcharts-point-up"></path><path fill="#7cb5ec" stroke="#000000" stroke-width="1" opacity="1" d="M 574.5 63.5 L 574.5 51.5 L 578.5 51.5 L 578.5 63.5 Z M 576.5 51.5 L 576.5 51.5 M 576.5 63.5 L 576.5 71" class="highcharts-point highcharts-color-0 highcharts-point-down"></path></g><g class="highcharts-markers highcharts-series-0 highcharts-candlestick-series highcharts-color-0" data-z-index="0.1" opacity="1" transform="translate(10,103) scale(1 1)" clip-path="none"></g><g class="highcharts-series highcharts-series-1 highcharts-column-series highcharts-color-1" data-z-index="0.1" opacity="1" transform="translate(10,307) scale(1 1)" clip-path="url(#highcharts-pxh3op4-1333-)"><rect x="2" y="62" width="4" height="7" fill="#434348" opacity="1" class="highcharts-point highcharts-color-1"></rect><rect x="8" y="47" width="4" height="22" fill="#434348" opacity="1" class="highcharts-point highcharts-color-1"></rect><rect x="15" y="10" width="4" height="59" fill="#434348" opacity="1" class="highcharts-point highcharts-color-1"></rect><rect x="21" y="50" width="4" height="19" fill="#434348" opacity="1" class="highcharts-point highcharts-color-1"></rect><rect x="28" y="56" width="4" height="13" fill="#434348" opacity="1" class="highcharts-point highcharts-color-1"></rect><rect x="34" y="63" width="4" height="6" fill="#434348" opacity="1" class="highcharts-point highcharts-color-1"></rect><rect x="41" y="60" width="4" height="9" fill="#434348" opacity="1" class="highcharts-point highcharts-color-1"></rect><rect x="47" y="59" width="4" height="10" fill="#434348" opacity="1" class="highcharts-point highcharts-color-1"></rect><rect x="54" y="61" width="4" height="8" fill="#434348" opacity="1" class="highcharts-point highcharts-color-1"></rect><rect x="60" y="60" width="4" height="9" fill="#434348" opacity="1" class="highcharts-point highcharts-color-1"></rect><rect x="67" y="59" width="4" height="10" fill="#434348" opacity="1" class="highcharts-point highcharts-color-1"></rect><rect x="73" y="60" width="4" height="9" fill="#434348" opacity="1" class="highcharts-point highcharts-color-1"></rect><rect x="80" y="55" width="4" height="14" fill="#434348" opacity="1" class="highcharts-point highcharts-color-1"></rect><rect x="86" y="58" width="4" height="11" fill="#434348" opacity="1" class="highcharts-point highcharts-color-1"></rect><rect x="93" y="61" width="4" height="8" fill="#434348" opacity="1" class="highcharts-point highcharts-color-1"></rect><rect x="99" y="62" width="4" height="7" fill="#434348" opacity="1" class="highcharts-point highcharts-color-1"></rect><rect x="106" y="56" width="4" height="13" fill="#434348" opacity="1" class="highcharts-point highcharts-color-1"></rect><rect x="112" y="59" width="4" height="10" fill="#434348" opacity="1" class="highcharts-point highcharts-color-1"></rect><rect x="119" y="46" width="4" height="23" fill="#434348" opacity="1" class="highcharts-point highcharts-color-1"></rect><rect x="126" y="59" width="4" height="10" fill="#434348" opacity="1" class="highcharts-point highcharts-color-1"></rect><rect x="132" y="62" width="4" height="7" fill="#434348" opacity="1" class="highcharts-point highcharts-color-1"></rect><rect x="139" y="56" width="4" height="13" fill="#434348" opacity="1" class="highcharts-point highcharts-color-1"></rect><rect x="145" y="57" width="4" height="12" fill="#434348" opacity="1" class="highcharts-point highcharts-color-1"></rect><rect x="152" y="57" width="4" height="12" fill="#434348" opacity="1" class="highcharts-point highcharts-color-1"></rect><rect x="158" y="55" width="4" height="14" fill="#434348" opacity="1" class="highcharts-point highcharts-color-1"></rect><rect x="165" y="58" width="4" height="11" fill="#434348" opacity="1" class="highcharts-point highcharts-color-1"></rect><rect x="171" y="58" width="4" height="11" fill="#434348" opacity="1" class="highcharts-point highcharts-color-1"></rect><rect x="178" y="62" width="4" height="7" fill="#434348" opacity="1" class="highcharts-point highcharts-color-1"></rect><rect x="184" y="59" width="4" height="10" fill="#434348" opacity="1" class="highcharts-point highcharts-color-1"></rect><rect x="191" y="61" width="4" height="8" fill="#434348" opacity="1" class="highcharts-point highcharts-color-1"></rect><rect x="197" y="58" width="4" height="11" fill="#434348" opacity="1" class="highcharts-point highcharts-color-1"></rect><rect x="204" y="62" width="4" height="7" fill="#434348" opacity="1" class="highcharts-point highcharts-color-1"></rect><rect x="210" y="62" width="4" height="7" fill="#434348" opacity="1" class="highcharts-point highcharts-color-1"></rect><rect x="217" y="63" width="4" height="6" fill="#434348" opacity="1" class="highcharts-point highcharts-color-1"></rect><rect x="223" y="61" width="4" height="8" fill="#434348" opacity="1" class="highcharts-point highcharts-color-1"></rect><rect x="230" y="63" width="4" height="6" fill="#434348" opacity="1" class="highcharts-point highcharts-color-1"></rect><rect x="236" y="65" width="4" height="4" fill="#434348" opacity="1" class="highcharts-point highcharts-color-1"></rect><rect x="243" y="63" width="4" height="6" fill="#434348" opacity="1" class="highcharts-point highcharts-color-1"></rect><rect x="249" y="63" width="4" height="6" fill="#434348" opacity="1" class="highcharts-point highcharts-color-1"></rect><rect x="256" y="61" width="4" height="8" fill="#434348" opacity="1" class="highcharts-point highcharts-color-1"></rect><rect x="262" y="58" width="4" height="11" fill="#434348" opacity="1" class="highcharts-point highcharts-color-1"></rect><rect x="269" y="62" width="4" height="7" fill="#434348" opacity="1" class="highcharts-point highcharts-color-1"></rect><rect x="275" y="61" width="4" height="8" fill="#434348" opacity="1" class="highcharts-point highcharts-color-1"></rect><rect x="282" y="62" width="4" height="7" fill="#434348" opacity="1" class="highcharts-point highcharts-color-1"></rect><rect x="288" y="59" width="4" height="10" fill="#434348" opacity="1" class="highcharts-point highcharts-color-1"></rect><rect x="295" y="64" width="4" height="5" fill="#434348" opacity="1" class="highcharts-point highcharts-color-1"></rect><rect x="301" y="64" width="4" height="5" fill="#434348" opacity="1" class="highcharts-point highcharts-color-1"></rect><rect x="308" y="62" width="4" height="7" fill="#434348" opacity="1" class="highcharts-point highcharts-color-1"></rect><rect x="315" y="57" width="4" height="12" fill="#434348" opacity="1" class="highcharts-point highcharts-color-1"></rect><rect x="321" y="59" width="4" height="10" fill="#434348" opacity="1" class="highcharts-point highcharts-color-1"></rect><rect x="328" y="57" width="4" height="12" fill="#434348" opacity="1" class="highcharts-point highcharts-color-1"></rect><rect x="334" y="61" width="4" height="8" fill="#434348" opacity="1" class="highcharts-point highcharts-color-1"></rect><rect x="341" y="63" width="4" height="6" fill="#434348" opacity="1" class="highcharts-point highcharts-color-1"></rect><rect x="347" y="60" width="4" height="9" fill="#434348" opacity="1" class="highcharts-point highcharts-color-1"></rect><rect x="354" y="62" width="4" height="7" fill="#434348" opacity="1" class="highcharts-point highcharts-color-1"></rect><rect x="360" y="58" width="4" height="11" fill="#434348" opacity="1" class="highcharts-point highcharts-color-1"></rect><rect x="367" y="57" width="4" height="12" fill="#434348" opacity="1" class="highcharts-point highcharts-color-1"></rect><rect x="373" y="56" width="4" height="13" fill="#434348" opacity="1" class="highcharts-point highcharts-color-1"></rect><rect x="380" y="53" width="4" height="16" fill="#434348" opacity="1" class="highcharts-point highcharts-color-1"></rect><rect x="386" y="56" width="4" height="13" fill="#434348" opacity="1" class="highcharts-point highcharts-color-1"></rect><rect x="393" y="63" width="4" height="6" fill="#434348" opacity="1" class="highcharts-point highcharts-color-1"></rect><rect x="399" y="62" width="4" height="7" fill="#434348" opacity="1" class="highcharts-point highcharts-color-1"></rect><rect x="406" y="64" width="4" height="5" fill="#434348" opacity="1" class="highcharts-point highcharts-color-1"></rect><rect x="412" y="62" width="4" height="7" fill="#434348" opacity="1" class="highcharts-point highcharts-color-1"></rect><rect x="419" y="65" width="4" height="4" fill="#434348" opacity="1" class="highcharts-point highcharts-color-1"></rect><rect x="425" y="60" width="4" height="9" fill="#434348" opacity="1" class="highcharts-point highcharts-color-1"></rect><rect x="432" y="57" width="4" height="12" fill="#434348" opacity="1" class="highcharts-point highcharts-color-1"></rect><rect x="438" y="55" width="4" height="14" fill="#434348" opacity="1" class="highcharts-point highcharts-color-1"></rect><rect x="445" y="59" width="4" height="10" fill="#434348" opacity="1" class="highcharts-point highcharts-color-1"></rect><rect x="451" y="63" width="4" height="6" fill="#434348" opacity="1" class="highcharts-point highcharts-color-1"></rect><rect x="458" y="57" width="4" height="12" fill="#434348" opacity="1" class="highcharts-point highcharts-color-1"></rect><rect x="464" y="58" width="4" height="11" fill="#434348" opacity="1" class="highcharts-point highcharts-color-1"></rect><rect x="471" y="56" width="4" height="13" fill="#434348" opacity="1" class="highcharts-point highcharts-color-1"></rect><rect x="477" y="59" width="4" height="10" fill="#434348" opacity="1" class="highcharts-point highcharts-color-1"></rect><rect x="484" y="63" width="4" height="6" fill="#434348" opacity="1" class="highcharts-point highcharts-color-1"></rect><rect x="490" y="61" width="4" height="8" fill="#434348" opacity="1" class="highcharts-point highcharts-color-1"></rect><rect x="497" y="55" width="4" height="14" fill="#434348" opacity="1" class="highcharts-point highcharts-color-1"></rect><rect x="503" y="60" width="4" height="9" fill="#434348" opacity="1" class="highcharts-point highcharts-color-1"></rect><rect x="510" y="64" width="4" height="5" fill="#434348" opacity="1" class="highcharts-point highcharts-color-1"></rect><rect x="517" y="64" width="4" height="5" fill="#434348" opacity="1" class="highcharts-point highcharts-color-1"></rect><rect x="523" y="57" width="4" height="12" fill="#434348" opacity="1" class="highcharts-point highcharts-color-1"></rect><rect x="530" y="60" width="4" height="9" fill="#434348" opacity="1" class="highcharts-point highcharts-color-1"></rect><rect x="536" y="61" width="4" height="8" fill="#434348" opacity="1" class="highcharts-point highcharts-color-1"></rect><rect x="543" y="63" width="4" height="6" fill="#434348" opacity="1" class="highcharts-point highcharts-color-1"></rect><rect x="549" y="62" width="4" height="7" fill="#434348" opacity="1" class="highcharts-point highcharts-color-1"></rect><rect x="556" y="59" width="4" height="10" fill="#434348" opacity="1" class="highcharts-point highcharts-color-1"></rect><rect x="562" y="61" width="4" height="8" fill="#434348" opacity="1" class="highcharts-point highcharts-color-1"></rect><rect x="569" y="58" width="4" height="11" fill="#434348" opacity="1" class="highcharts-point highcharts-color-1"></rect><rect x="575" y="59" width="4" height="10" fill="#434348" opacity="1" class="highcharts-point highcharts-color-1"></rect></g><g class="highcharts-markers highcharts-series-1 highcharts-column-series highcharts-color-1" data-z-index="0.1" opacity="1" transform="translate(10,307) scale(1 1)" clip-path="none"></g><g class="highcharts-series highcharts-series-2 highcharts-line-series highcharts-color-3" visibility="hidden" data-z-index="0.1" opacity="1" transform="translate(10,103) scale(1 1)" clip-path="url(#highcharts-pxh3op4-1423-)"><path fill="none" d="M 3.2584269662921 86.7 L 9.7752808988764 108.12 L 16.292134831461 173.4 L 22.808988764045 171.36 L 29.325842696629 167.28 L 35.842696629213 156.06 L 42.359550561798 156.57 L 48.876404494382 156.162 L 55.393258426966 156.06 L 61.910112359551 154.122 L 68.426966292135 154.122 L 74.943820224719 155.04000000000002 L 81.460674157303 153 L 87.977528089888 148.002 L 94.494382022472 145.86 L 101.01123595506 144.84 L 107.52808988764 147.9 L 114.04494382022 150.45 L 120.56179775281 136.68 L 127.07865168539 143.82 L 133.59550561798 134.64 L 140.11235955056 143.82 L 146.62921348315 141.78 L 153.14606741573 135.66000000000003 L 159.66292134831 134.64 L 166.1797752809 129.54000000000002 L 172.69662921348 119.54400000000001 L 179.21348314607 112.2 L 185.73033707865 112.2 L 192.24719101124 117.096 L 198.76404494382 135.15 L 205.2808988764 137.7 L 211.79775280899 124.542 L 218.31460674157 128.52 L 224.83146067416 122.4 L 231.34831460674 130.05 L 237.86516853933 123.93 L 244.38202247191 127.5 L 250.89887640449 119.44200000000001 L 257.41573033708 122.4 L 263.93258426966 123.93 L 270.44943820225 118.32000000000001 L 276.96629213483 119.034 L 283.48314606742 119.34 L 290 115.77000000000001 L 296.51685393258 117.81 L 303.03370786517 115.668 L 309.55056179775 115.26 L 316.06741573034 117.30000000000001 L 322.58426966292 116.28 L 329.10112359551 112.2 L 335.61797752809 114.24000000000001 L 342.13483146067 111.28200000000001 L 348.65168539326 115.26 L 355.16853932584 103.02000000000001 L 361.68539325843 107.10000000000001 L 368.20224719101 103.02000000000001 L 374.7191011236 102 L 381.23595505618 96.9 L 387.75280898876 93.84 L 394.26966292135 94.45200000000001 L 400.78651685393 91.80000000000001 L 407.30337078652 92.10600000000001 L 413.8202247191 93.84 L 420.33707865169 92.004 L 426.85393258427 92.82000000000001 L 433.37078651685 91.80000000000001 L 439.88764044944 88.74000000000001 L 446.40449438202 91.80000000000001 L 452.92134831461 84.66000000000001 L 459.43820224719 86.7 L 465.95505617978 82.51800000000001 L 472.47191011236 76.50000000000001 L 478.98876404494 71.4 L 485.50561797753 72.42000000000002 L 492.02247191011 69.46200000000002 L 498.5393258427 66.30000000000001 L 505.05617977528 66.30000000000001 L 511.57303370787 62.22 L 518.08988764045 62.42400000000001 L 524.60674157303 61.20000000000002 L 531.12359550562 61.20000000000002 L 537.6404494382 61.20000000000002 L 544.15730337079 61.20000000000002 L 550.67415730337 61.20000000000002 L 557.19101123596 57.120000000000005 L 563.70786516854 61.20000000000002 L 570.22471910112 61.20000000000002 L 576.74157303371 61.20000000000002" class="highcharts-graph" data-z-index="1" stroke="#f7a35c" stroke-width="2" stroke-linejoin="round" stroke-linecap="round"></path></g><g class="highcharts-markers highcharts-series-2 highcharts-line-series highcharts-color-3" visibility="hidden" data-z-index="0.1" opacity="1" transform="translate(10,103) scale(1 1)" clip-path="none"></g><g class="highcharts-series highcharts-series-3 highcharts-cci-series highcharts-color-7" data-z-index="0.1" opacity="1" transform="translate(10,375) scale(1 1)" clip-path="url(#highcharts-pxh3op4-1500-)"><path fill="none" d="M 87.977528089888 34.463909335461736 L 94.494382022472 28.033759193267073 L 101.01123595506 23.565953594420584 L 107.52808988764 25.039924973204684 L 114.04494382022 18.814938535542005 L 120.56179775281 10.67650004886194 L 127.07865168539 22.889025995393688 L 133.59550561798 16.41326160541619 L 140.11235955056 33.02989130434784 L 146.62921348315 24.89710559796437 L 153.14606741573 21.90181097906069 L 159.66292134831 20.05848947877213 L 166.1797752809 21.601481842466 L 172.69662921348 13.260546727203746 L 179.21348314607 9.870844564240556 L 185.73033707865 17.391689163977503 L 192.24719101124 22.310992907801754 L 198.76404494382 36.943010752688195 L 205.2808988764 40.67091557017542 L 211.79775280899 32.87445240939862 L 218.31460674157 33.07000658111222 L 224.83146067416 28.63881060397764 L 231.34831460674 34.22248439837022 L 237.86516853933 36.16082687553815 L 244.38202247191 33.41604211277657 L 250.89887640449 30.263835674755178 L 257.41573033708 35.75135109052301 L 263.93258426966 33.116899778627456 L 270.44943820225 27.483333333333263 L 276.96629213483 25.715663931935566 L 283.48314606742 25.18148769574941 L 290 21.763040238449875 L 296.51685393258 24.295924967658486 L 303.03370786517 26.911071616640356 L 309.55056179775 22.64858156028413 L 316.06741573034 30.860240334378332 L 322.58426966292 24.88067725886699 L 329.10112359551 18.22086720867219 L 335.61797752809 18.75115740740725 L 342.13483146067 17.690170940171313 L 348.65168539326 22.237767584098187 L 355.16853932584 10.285285944127814 L 361.68539325843 19.3456239611305 L 368.20224719101 17.76736111111088 L 374.7191011236 26.129763525008492 L 381.23595505618 17.211606460244937 L 387.75280898876 16.530255878285317 L 394.26966292135 19.31010060894863 L 400.78651685393 20.209538026398 L 407.30337078652 21.789486434108 L 413.8202247191 24.667756104309383 L 420.33707865169 24.884013109978135 L 426.85393258427 26.44658948223651 L 433.37078651685 26.54166666666672 L 439.88764044944 24.79648526077095 L 446.40449438202 23.371803549939877 L 452.92134831461 17.0496205487445 L 459.43820224719 13.972222222222626 L 465.95505617978 15.521249337338254 L 472.47191011236 10.71750692768444 L 478.98876404494 14.458814036533255 L 485.50561797753 21.717296827466505 L 492.02247191011 21.23093636108775 L 498.5393258427 20.882171763742008 L 505.05617977528 23.05909367396619 L 511.57303370787 23.063836788417625 L 518.08988764045 26.50226685546785 L 524.60674157303 21.771744927072064 L 531.12359550562 24.706458408031587 L 537.6404494382 22.875273448181247 L 544.15730337079 24.025094042683826 L 550.67415730337 24.20906393309957 L 557.19101123596 22.219142259413815 L 563.70786516854 29.79648290028878 L 570.22471910112 28.36069384835475 L 576.74157303371 36.25789313904068" class="highcharts-graph" data-z-index="1" stroke="#2b908f" stroke-width="2" stroke-linejoin="round" stroke-linecap="round"></path></g><g class="highcharts-markers highcharts-series-3 highcharts-cci-series highcharts-color-7" data-z-index="0.1" opacity="1" transform="translate(10,375) scale(1 1)" clip-path="none"></g><g class="highcharts-series highcharts-series-4 highcharts-vwap-series highcharts-color-8" data-z-index="0.1" opacity="1" transform="translate(10,103) scale(1 1)" clip-path="url(#highcharts-pxh3op4-1243-)"><path fill="none" d="M 3.2584269662921 88.39999999999932 L 9.7752808988764 96.79621052631673 L 16.292134831461 146.19534474327708 L 22.808988764045 150.53065593561362 L 29.325842696629 151.80290647481965 L 35.842696629213 152.07306484641612 L 42.359550561798 152.3782392344502 L 48.876404494382 152.56103571428486 L 55.393258426966 152.77161181434528 L 61.910112359551 152.82851390728382 L 68.426966292135 152.88239900249414 L 74.943820224719 152.96632151300184 L 81.460674157303 152.97347252747184 L 87.977528089888 152.7915514018697 L 94.494382022472 152.49485714285723 L 101.01123595506 152.3662531400963 L 107.52808988764 152.19604748858436 L 114.04494382022 151.87285389326232 L 120.56179775281 150.45592960000067 L 127.07865168539 150.1414872979218 L 133.59550561798 149.72875618904715 L 140.11235955056 149.60019484240667 L 146.62921348315 149.19330949105859 L 153.14606741573 148.66113227513148 L 159.66292134831 147.95367512690268 L 166.1797752809 147.387766728054 L 172.69662921348 146.471757287328 L 179.21348314607 145.63404662004757 L 185.73033707865 144.6724313280354 L 192.24719101124 143.9663076068856 L 198.76404494382 134.29999999999933 L 205.2808988764 136.22000000000088 L 211.79775280899 133.70528813559417 L 218.31460674157 132.27989115646307 L 224.83146067416 129.62315217391262 L 231.34831460674 129.09042654028525 L 237.86516853933 128.8849137931038 L 244.38202247191 128.2021455938701 L 250.89887640449 127.1973883161516 L 257.41573033708 126.78199395770305 L 263.93258426966 126.06078534031406 L 270.44943820225 125.42871670702249 L 276.96629213483 124.79332739420975 L 283.48314606742 124.30062809917285 L 290 123.46875471698077 L 296.51685393258 123.14259927797845 L 303.03370786517 122.88023529411805 L 309.55056179775 122.38691027732507 L 316.06741573034 122.01846706586785 L 322.58426966292 121.53335564853468 L 329.10112359551 120.87325906735754 L 335.61797752809 120.41250738916224 L 342.13483146067 120.0402140309147 L 348.65168539326 119.61253968253992 L 355.16853932584 118.9922137404576 L 361.68539325843 118.24765808444964 L 368.20224719101 117.39878870496673 L 374.7191011236 116.80779760809575 L 381.23595505618 115.64726614987103 L 387.75280898876 114.62553770491752 L 394.26966292135 94.248 L 400.78651685393 93.33548387096772 L 407.30337078652 92.95287356321869 L 413.8202247191 93.0122950819673 L 420.33707865169 92.867262411348 L 426.85393258427 92.77515675675672 L 433.37078651685 92.55168333333289 L 439.88764044944 91.97888888888833 L 446.40449438202 91.5200569800576 L 452.92134831461 91.02350132625901 L 459.43820224719 89.84972222222125 L 465.95505617978 88.77441975308737 L 472.47191011236 86.78843715847081 L 478.98876404494 85.33588571428645 L 485.50561797753 84.71982692307708 L 492.02247191011 83.83009090909128 L 498.5393258427 82.13019337016665 L 505.05617977528 81.14740547588028 L 511.57303370787 80.54136363636445 L 518.08988764045 80.09450000000089 L 524.60674157303 78.61500228832848 L 531.12359550562 77.80418797814293 L 537.6404494382 77.04950578338565 L 544.15730337079 76.5274642126781 L 550.67415730337 75.91618199802252 L 557.19101123596 75.04276515151477 L 563.70786516854 74.51469835466207 L 570.22471910112 73.76365156794338 L 576.74157303371 73.31539983235598" class="highcharts-graph" data-z-index="1" stroke="#f45b5b" stroke-width="2" stroke-linejoin="round" stroke-linecap="round"></path></g><g class="highcharts-markers highcharts-series-4 highcharts-vwap-series highcharts-color-8" data-z-index="0.1" opacity="1" transform="translate(10,103) scale(1 1)" clip-path="none"></g><g class="highcharts-series highcharts-series-5 highcharts-areaspline-series highcharts-navigator-series" data-z-index="0.1" opacity="1" transform="translate(24,492) scale(1 1)" clip-path="url(#highcharts-pxh3op4-1679-)"><path fill="rgb(124,181,236)" fill-opacity="0.05" d="M 0 11.736227045075129 C 0 11.736227045075129 3.7636363636363797 11.736227045075129 6.2727272727273 16.688925987757376 C 8.78181818181838 21.641624930439622 10.03636363636392 36.66666666666667 12.545454545455 36.66666666666667 C 15.0545454545458 36.66666666666667 16.309090909091204 32.270450751252085 18.818181818182 31.713967723984418 C 21.327272727272803 31.15748469671675 22.5818181818182 31.15748469671675 25.090909090909 31.15748469671675 C 27.599999999999802 31.15748469671675 28.8545454545452 31.213132999443516 31.363636363636 31.213132999443516 C 33.872727272727204 31.213132999443516 35.1272727272728 31.213132999443516 37.636363636364 31.213132999443516 C 40.1454545454548 31.213132999443516 41.400000000000205 31.15748469671675 43.909090909091 31.15748469671675 C 46.4181818181818 31.15748469671675 47.672727272727194 32.04785754034502 50.181818181818 32.04785754034502 C 52.690909090908804 32.04785754034502 53.94545454545421 31.15748469671675 56.454545454545 31.15748469671675 C 58.963636363636205 31.15748469671675 60.218181818181804 31.15748469671675 62.727272727273 31.15748469671675 C 65.23636363636379 31.15748469671675 66.4909090909092 31.15748469671675 69 31.15748469671675 C 71.5090909090908 31.15748469671675 72.7636363636362 31.15748469671675 75.272727272727 31.15748469671675 C 77.7818181818182 31.15748469671675 79.0363636363638 30.267111853088526 81.545454545455 29.710628825820812 C 84.05454545454579 29.15414579855319 85.3090909090912 29.087367835281025 87.818181818182 28.37506956037841 C 90.3272727272728 27.6627712854758 91.58181818181819 26.149137451307737 94.090909090909 26.149137451307737 C 96.60000000000139 26.149137451307737 97.85454545454759 32.54869226488592 100.36363636364 32.54869226488592 C 102.872727272728 32.54869226488592 104.127272727272 25.59265442404007 106.63636363636 25.59265442404007 C 109.145454545452 25.59265442404007 110.399999999998 25.92654424040067 112.90909090909 26.149137451307737 C 115.418181818182 26.371730662214805 116.672727272728 26.705620478575405 119.18181818182 26.705620478575405 C 121.69090909091202 26.705620478575405 122.945454545458 25.8708959376739 125.45454545455 25.8708959376739 C 127.96363636363799 25.8708959376739 129.218181818182 26.705620478575405 131.72727272727 26.705620478575405 C 134.236363636362 26.705620478575405 135.49090909090802 26.416249304396217 138 26.204785754034503 C 140.50909090909198 25.99332220367279 141.763636363638 25.703951029493602 144.27272727273 25.648302726766836 C 146.781818181818 25.59265442404007 148.036363636362 25.648302726766836 150.54545454545 25.59265442404007 C 153.054545454542 25.537006121313304 154.30909090908798 25.0361713967724 156.81818181818 23.923205342237065 C 159.327272727272 22.810239287701727 160.581818181818 20.027824151363387 163.09090909091 20.027824151363387 C 165.600000000002 20.027824151363387 166.854545454548 20.083472454090153 169.36363636364 20.083472454090153 C 171.872727272728 20.083472454090153 173.127272727272 17.245409015025043 175.63636363636 17.245409015025043 C 178.145454545452 17.245409015025043 179.399999999998 21.69727323316639 181.90909090909 23.366722314969394 C 184.418181818182 25.0361713967724 185.67272727272797 25.59265442404007 188.18181818182 25.59265442404007 C 190.690909090912 25.59265442404007 191.94545454545798 25.59265442404007 194.45454545455 25.59265442404007 C 196.963636363638 25.59265442404007 198.218181818182 20.083472454090153 200.72727272727 20.083472454090153 C 203.236363636362 20.083472454090153 204.49090909090802 25.59265442404007 207 25.59265442404007 C 209.50909090909198 25.59265442404007 210.76363636363803 20.695603784084586 213.27272727273 20.63995548135782 C 215.781818181818 20.584307178631054 217.036363636362 20.584307178631054 219.54545454545 20.584307178631054 C 222.05454545454205 20.584307178631054 223.30909090908798 24.479688369504732 225.81818181818 24.479688369504732 C 228.32727272727203 24.479688369504732 229.58181818181802 23.689482470784636 232.09090909091 22.810239287701727 C 234.600000000002 21.930996104618806 235.854545454548 20.083472454090153 238.36363636364 20.083472454090153 C 240.872727272728 20.083472454090153 242.127272727272 20.083472454090153 244.63636363636 20.083472454090153 C 247.145454545452 20.083472454090153 248.399999999998 22.810239287701727 250.90909090909 22.810239287701727 C 253.41818181818198 22.810239287701727 254.67272727272797 21.419031719532562 257.18181818182 20.862548692264888 C 259.690909090912 20.306065664997227 260.94545454545795 20.027824151363387 263.45454545455 20.027824151363387 C 265.963636363638 20.027824151363387 267.21818181818196 21.697273233166392 269.72727272727 21.697273233166392 C 272.236363636362 21.697273233166392 273.490909090908 20.027824151363387 276 20.027824151363387 C 278.509090909092 20.027824151363387 279.763636363638 20.027824151363387 282.27272727273 20.13912075681692 C 284.78181818181804 20.25041736227045 286.036363636362 20.584307178631054 288.54545454545 20.584307178631054 C 291.05454545454205 20.584307178631054 292.309090909088 20.027824151363387 294.81818181818 20.027824151363387 C 297.327272727272 20.027824151363387 298.581818181818 20.027824151363387 301.09090909091 20.027824151363387 C 303.600000000002 20.027824151363387 304.854545454548 20.584307178631054 307.36363636364 20.584307178631054 C 309.872727272728 20.584307178631054 311.127272727272 20.473010573177163 313.63636363636 20.027824151363387 C 316.145454545452 19.582637729548896 317.399999999998 18.35837506956038 319.90909090909 18.35837506956038 C 322.418181818182 18.35837506956038 323.672727272728 19.081803005008346 326.18181818182 19.471341124095716 C 328.690909090912 19.860879243183085 329.94545454545795 20.30606566499722 332.45454545455 20.30606566499722 C 334.963636363638 20.30606566499722 336.21818181818196 14.462993878686703 338.72727272727 14.462993878686703 C 341.236363636362 14.462993878686703 342.490909090908 14.462993878686703 345 14.462993878686703 C 347.509090909092 14.462993878686703 348.763636363638 14.462993878686703 351.27272727273 15.01947690595437 C 353.78181818181804 15.575959933222038 355.036363636362 19.41569282136895 357.54545454545 19.41569282136895 C 360.05454545454205 19.41569282136895 361.309090909088 18.235948803561495 363.81818181818 17.245409015025043 C 366.327272727272 16.254869226488594 367.581818181818 14.462993878686703 370.09090909091 14.462993878686703 C 372.600000000002 14.462993878686703 373.854545454548 14.462993878686703 376.36363636364 14.462993878686703 C 378.87272727272796 14.462993878686703 380.12727272727204 13.071786310517531 382.63636363636 13.071786310517531 C 385.145454545452 13.071786310517531 386.399999999998 14.462993878686703 388.90909090909 14.462993878686703 C 391.418181818182 14.462993878686703 392.672727272728 14.462993878686703 395.18181818182 14.462993878686703 C 397.690909090912 14.462993878686703 398.94545454545795 14.462993878686703 401.45454545455 14.462993878686703 C 403.963636363638 14.462993878686703 405.21818181818196 14.462993878686703 407.72727272727 14.462993878686703 C 410.23636363636194 14.462993878686703 411.490909090908 13.350027824151365 414 13.350027824151365 C 416.509090909092 13.350027824151365 417.76363636363806 13.350027824151365 420.27272727273 13.350027824151365 C 422.78181818181804 13.350027824151365 424.03636363636195 11.68057874234836 426.54545454545 11.68057874234836 C 429.05454545454205 11.68057874234836 430.309090909088 11.68057874234836 432.81818181818 11.68057874234836 C 435.327272727272 11.68057874234836 436.581818181818 8.89816360601002 439.09090909091 8.89816360601002 C 441.600000000002 8.89816360601002 442.854545454548 15.01947690595437 445.36363636364 15.01947690595437 C 447.87272727272796 15.01947690595437 449.12727272727204 6.115748469671679 451.63636363636 6.115748469671679 C 454.145454545452 6.115748469671679 455.399999999998 8.89816360601002 457.90909090909 8.89816360601002 C 460.418181818182 8.89816360601002 461.672727272728 8.89816360601002 464.18181818182 8.89816360601002 C 466.690909090912 8.89816360601002 467.94545454545795 3.4446299387868677 470.45454545455 3.3889816360601017 C 472.96363636363805 3.3333333333333357 474.21818181818196 3.3333333333333357 476.72727272727 3.3333333333333357 C 479.23636363636194 3.3333333333333357 480.490909090908 6.115748469671679 483 6.115748469671679 C 485.509090909092 6.115748469671679 486.76363636363806 6.115748469671679 489.27272727273 6.115748469671679 C 491.78181818181804 6.115748469671679 493.03636363636195 3.611574846967173 495.54545454545 3.611574846967173 C 498.05454545454205 3.611574846967173 499.309090909088 6.115748469671679 501.81818181818 6.115748469671679 C 504.327272727272 6.115748469671679 505.581818181818 3.4446299387868677 508.09090909091 3.4446299387868677 C 510.600000000002 3.4446299387868677 511.854545454548 6.393989983305509 514.36363636364 6.393989983305509 C 516.872727272728 6.393989983305509 518.127272727272 3.3333333333333357 520.63636363636 3.3333333333333357 C 523.145454545452 3.3333333333333357 524.399999999998 3.3333333333333357 526.90909090909 3.3333333333333357 C 529.418181818182 3.3333333333333357 530.6727272727279 5.002782415136345 533.18181818182 5.002782415136345 C 535.690909090912 5.002782415136345 536.945454545458 3.889816360601003 539.45454545455 3.889816360601003 C 541.963636363638 3.889816360601003 543.218181818182 8.89816360601002 545.72727272727 8.89816360601002 C 548.236363636362 8.89816360601002 552 3.3333333333333357 552 3.3333333333333357 L 552 40 C 552 40 548.236363636362 40 545.72727272727 40 C 543.218181818182 40 541.963636363638 40 539.45454545455 40 C 536.945454545458 40 535.690909090912 40 533.18181818182 40 C 530.6727272727279 40 529.418181818182 40 526.90909090909 40 C 524.399999999998 40 523.145454545452 40 520.63636363636 40 C 518.127272727272 40 516.872727272728 40 514.36363636364 40 C 511.854545454548 40 510.600000000002 40 508.09090909091 40 C 505.581818181818 40 504.327272727272 40 501.81818181818 40 C 499.309090909088 40 498.05454545454205 40 495.54545454545 40 C 493.03636363636195 40 491.78181818181804 40 489.27272727273 40 C 486.76363636363806 40 485.509090909092 40 483 40 C 480.490909090908 40 479.23636363636194 40 476.72727272727 40 C 474.21818181818196 40 472.96363636363805 40 470.45454545455 40 C 467.94545454545795 40 466.690909090912 40 464.18181818182 40 C 461.672727272728 40 460.418181818182 40 457.90909090909 40 C 455.399999999998 40 454.145454545452 40 451.63636363636 40 C 449.12727272727204 40 447.87272727272796 40 445.36363636364 40 C 442.854545454548 40 441.600000000002 40 439.09090909091 40 C 436.581818181818 40 435.327272727272 40 432.81818181818 40 C 430.309090909088 40 429.05454545454205 40 426.54545454545 40 C 424.03636363636195 40 422.78181818181804 40 420.27272727273 40 C 417.76363636363806 40 416.509090909092 40 414 40 C 411.490909090908 40 410.23636363636194 40 407.72727272727 40 C 405.21818181818196 40 403.963636363638 40 401.45454545455 40 C 398.94545454545795 40 397.690909090912 40 395.18181818182 40 C 392.672727272728 40 391.418181818182 40 388.90909090909 40 C 386.399999999998 40 385.145454545452 40 382.63636363636 40 C 380.12727272727204 40 378.87272727272796 40 376.36363636364 40 C 373.854545454548 40 372.600000000002 40 370.09090909091 40 C 367.581818181818 40 366.327272727272 40 363.81818181818 40 C 361.309090909088 40 360.05454545454205 40 357.54545454545 40 C 355.036363636362 40 353.78181818181804 40 351.27272727273 40 C 348.763636363638 40 347.509090909092 40 345 40 C 342.490909090908 40 341.236363636362 40 338.72727272727 40 C 336.21818181818196 40 334.963636363638 40 332.45454545455 40 C 329.94545454545795 40 328.690909090912 40 326.18181818182 40 C 323.672727272728 40 322.418181818182 40 319.90909090909 40 C 317.399999999998 40 316.145454545452 40 313.63636363636 40 C 311.127272727272 40 309.872727272728 40 307.36363636364 40 C 304.854545454548 40 303.600000000002 40 301.09090909091 40 C 298.581818181818 40 297.327272727272 40 294.81818181818 40 C 292.309090909088 40 291.05454545454205 40 288.54545454545 40 C 286.036363636362 40 284.78181818181804 40 282.27272727273 40 C 279.763636363638 40 278.509090909092 40 276 40 C 273.490909090908 40 272.236363636362 40 269.72727272727 40 C 267.21818181818196 40 265.963636363638 40 263.45454545455 40 C 260.94545454545795 40 259.690909090912 40 257.18181818182 40 C 254.67272727272797 40 253.41818181818198 40 250.90909090909 40 C 248.399999999998 40 247.145454545452 40 244.63636363636 40 C 242.127272727272 40 240.872727272728 40 238.36363636364 40 C 235.854545454548 40 234.600000000002 40 232.09090909091 40 C 229.58181818181802 40 228.32727272727203 40 225.81818181818 40 C 223.30909090908798 40 222.05454545454205 40 219.54545454545 40 C 217.036363636362 40 215.781818181818 40 213.27272727273 40 C 210.76363636363803 40 209.50909090909198 40 207 40 C 204.49090909090802 40 203.236363636362 40 200.72727272727 40 C 198.218181818182 40 196.963636363638 40 194.45454545455 40 C 191.94545454545798 40 190.690909090912 40 188.18181818182 40 C 185.67272727272797 40 184.418181818182 40 181.90909090909 40 C 179.399999999998 40 178.145454545452 40 175.63636363636 40 C 173.127272727272 40 171.872727272728 40 169.36363636364 40 C 166.854545454548 40 165.600000000002 40 163.09090909091 40 C 160.581818181818 40 159.327272727272 40 156.81818181818 40 C 154.30909090908798 40 153.054545454542 40 150.54545454545 40 C 148.036363636362 40 146.781818181818 40 144.27272727273 40 C 141.763636363638 40 140.50909090909198 40 138 40 C 135.49090909090802 40 134.236363636362 40 131.72727272727 40 C 129.218181818182 40 127.96363636363799 40 125.45454545455 40 C 122.945454545458 40 121.69090909091202 40 119.18181818182 40 C 116.672727272728 40 115.418181818182 40 112.90909090909 40 C 110.399999999998 40 109.145454545452 40 106.63636363636 40 C 104.127272727272 40 102.872727272728 40 100.36363636364 40 C 97.85454545454759 40 96.60000000000139 40 94.090909090909 40 C 91.58181818181819 40 90.3272727272728 40 87.818181818182 40 C 85.3090909090912 40 84.05454545454579 40 81.545454545455 40 C 79.0363636363638 40 77.7818181818182 40 75.272727272727 40 C 72.7636363636362 40 71.5090909090908 40 69 40 C 66.4909090909092 40 65.23636363636379 40 62.727272727273 40 C 60.218181818181804 40 58.963636363636205 40 56.454545454545 40 C 53.94545454545421 40 52.690909090908804 40 50.181818181818 40 C 47.672727272727194 40 46.4181818181818 40 43.909090909091 40 C 41.400000000000205 40 40.1454545454548 40 37.636363636364 40 C 35.1272727272728 40 33.872727272727204 40 31.363636363636 40 C 28.8545454545452 40 27.599999999999802 40 25.090909090909 40 C 22.5818181818182 40 21.327272727272803 40 18.818181818182 40 C 16.309090909091204 40 15.0545454545458 40 12.545454545455 40 C 10.03636363636392 40 8.78181818181838 40 6.2727272727273 40 C 3.7636363636363797 40 0 40 0 40 Z" class="highcharts-area" data-z-index="0"></path><path fill="none" d="M 0 11.736227045075129 C 0 11.736227045075129 3.7636363636363797 11.736227045075129 6.2727272727273 16.688925987757376 C 8.78181818181838 21.641624930439622 10.03636363636392 36.66666666666667 12.545454545455 36.66666666666667 C 15.0545454545458 36.66666666666667 16.309090909091204 32.270450751252085 18.818181818182 31.713967723984418 C 21.327272727272803 31.15748469671675 22.5818181818182 31.15748469671675 25.090909090909 31.15748469671675 C 27.599999999999802 31.15748469671675 28.8545454545452 31.213132999443516 31.363636363636 31.213132999443516 C 33.872727272727204 31.213132999443516 35.1272727272728 31.213132999443516 37.636363636364 31.213132999443516 C 40.1454545454548 31.213132999443516 41.400000000000205 31.15748469671675 43.909090909091 31.15748469671675 C 46.4181818181818 31.15748469671675 47.672727272727194 32.04785754034502 50.181818181818 32.04785754034502 C 52.690909090908804 32.04785754034502 53.94545454545421 31.15748469671675 56.454545454545 31.15748469671675 C 58.963636363636205 31.15748469671675 60.218181818181804 31.15748469671675 62.727272727273 31.15748469671675 C 65.23636363636379 31.15748469671675 66.4909090909092 31.15748469671675 69 31.15748469671675 C 71.5090909090908 31.15748469671675 72.7636363636362 31.15748469671675 75.272727272727 31.15748469671675 C 77.7818181818182 31.15748469671675 79.0363636363638 30.267111853088526 81.545454545455 29.710628825820812 C 84.05454545454579 29.15414579855319 85.3090909090912 29.087367835281025 87.818181818182 28.37506956037841 C 90.3272727272728 27.6627712854758 91.58181818181819 26.149137451307737 94.090909090909 26.149137451307737 C 96.60000000000139 26.149137451307737 97.85454545454759 32.54869226488592 100.36363636364 32.54869226488592 C 102.872727272728 32.54869226488592 104.127272727272 25.59265442404007 106.63636363636 25.59265442404007 C 109.145454545452 25.59265442404007 110.399999999998 25.92654424040067 112.90909090909 26.149137451307737 C 115.418181818182 26.371730662214805 116.672727272728 26.705620478575405 119.18181818182 26.705620478575405 C 121.69090909091202 26.705620478575405 122.945454545458 25.8708959376739 125.45454545455 25.8708959376739 C 127.96363636363799 25.8708959376739 129.218181818182 26.705620478575405 131.72727272727 26.705620478575405 C 134.236363636362 26.705620478575405 135.49090909090802 26.416249304396217 138 26.204785754034503 C 140.50909090909198 25.99332220367279 141.763636363638 25.703951029493602 144.27272727273 25.648302726766836 C 146.781818181818 25.59265442404007 148.036363636362 25.648302726766836 150.54545454545 25.59265442404007 C 153.054545454542 25.537006121313304 154.30909090908798 25.0361713967724 156.81818181818 23.923205342237065 C 159.327272727272 22.810239287701727 160.581818181818 20.027824151363387 163.09090909091 20.027824151363387 C 165.600000000002 20.027824151363387 166.854545454548 20.083472454090153 169.36363636364 20.083472454090153 C 171.872727272728 20.083472454090153 173.127272727272 17.245409015025043 175.63636363636 17.245409015025043 C 178.145454545452 17.245409015025043 179.399999999998 21.69727323316639 181.90909090909 23.366722314969394 C 184.418181818182 25.0361713967724 185.67272727272797 25.59265442404007 188.18181818182 25.59265442404007 C 190.690909090912 25.59265442404007 191.94545454545798 25.59265442404007 194.45454545455 25.59265442404007 C 196.963636363638 25.59265442404007 198.218181818182 20.083472454090153 200.72727272727 20.083472454090153 C 203.236363636362 20.083472454090153 204.49090909090802 25.59265442404007 207 25.59265442404007 C 209.50909090909198 25.59265442404007 210.76363636363803 20.695603784084586 213.27272727273 20.63995548135782 C 215.781818181818 20.584307178631054 217.036363636362 20.584307178631054 219.54545454545 20.584307178631054 C 222.05454545454205 20.584307178631054 223.30909090908798 24.479688369504732 225.81818181818 24.479688369504732 C 228.32727272727203 24.479688369504732 229.58181818181802 23.689482470784636 232.09090909091 22.810239287701727 C 234.600000000002 21.930996104618806 235.854545454548 20.083472454090153 238.36363636364 20.083472454090153 C 240.872727272728 20.083472454090153 242.127272727272 20.083472454090153 244.63636363636 20.083472454090153 C 247.145454545452 20.083472454090153 248.399999999998 22.810239287701727 250.90909090909 22.810239287701727 C 253.41818181818198 22.810239287701727 254.67272727272797 21.419031719532562 257.18181818182 20.862548692264888 C 259.690909090912 20.306065664997227 260.94545454545795 20.027824151363387 263.45454545455 20.027824151363387 C 265.963636363638 20.027824151363387 267.21818181818196 21.697273233166392 269.72727272727 21.697273233166392 C 272.236363636362 21.697273233166392 273.490909090908 20.027824151363387 276 20.027824151363387 C 278.509090909092 20.027824151363387 279.763636363638 20.027824151363387 282.27272727273 20.13912075681692 C 284.78181818181804 20.25041736227045 286.036363636362 20.584307178631054 288.54545454545 20.584307178631054 C 291.05454545454205 20.584307178631054 292.309090909088 20.027824151363387 294.81818181818 20.027824151363387 C 297.327272727272 20.027824151363387 298.581818181818 20.027824151363387 301.09090909091 20.027824151363387 C 303.600000000002 20.027824151363387 304.854545454548 20.584307178631054 307.36363636364 20.584307178631054 C 309.872727272728 20.584307178631054 311.127272727272 20.473010573177163 313.63636363636 20.027824151363387 C 316.145454545452 19.582637729548896 317.399999999998 18.35837506956038 319.90909090909 18.35837506956038 C 322.418181818182 18.35837506956038 323.672727272728 19.081803005008346 326.18181818182 19.471341124095716 C 328.690909090912 19.860879243183085 329.94545454545795 20.30606566499722 332.45454545455 20.30606566499722 C 334.963636363638 20.30606566499722 336.21818181818196 14.462993878686703 338.72727272727 14.462993878686703 C 341.236363636362 14.462993878686703 342.490909090908 14.462993878686703 345 14.462993878686703 C 347.509090909092 14.462993878686703 348.763636363638 14.462993878686703 351.27272727273 15.01947690595437 C 353.78181818181804 15.575959933222038 355.036363636362 19.41569282136895 357.54545454545 19.41569282136895 C 360.05454545454205 19.41569282136895 361.309090909088 18.235948803561495 363.81818181818 17.245409015025043 C 366.327272727272 16.254869226488594 367.581818181818 14.462993878686703 370.09090909091 14.462993878686703 C 372.600000000002 14.462993878686703 373.854545454548 14.462993878686703 376.36363636364 14.462993878686703 C 378.87272727272796 14.462993878686703 380.12727272727204 13.071786310517531 382.63636363636 13.071786310517531 C 385.145454545452 13.071786310517531 386.399999999998 14.462993878686703 388.90909090909 14.462993878686703 C 391.418181818182 14.462993878686703 392.672727272728 14.462993878686703 395.18181818182 14.462993878686703 C 397.690909090912 14.462993878686703 398.94545454545795 14.462993878686703 401.45454545455 14.462993878686703 C 403.963636363638 14.462993878686703 405.21818181818196 14.462993878686703 407.72727272727 14.462993878686703 C 410.23636363636194 14.462993878686703 411.490909090908 13.350027824151365 414 13.350027824151365 C 416.509090909092 13.350027824151365 417.76363636363806 13.350027824151365 420.27272727273 13.350027824151365 C 422.78181818181804 13.350027824151365 424.03636363636195 11.68057874234836 426.54545454545 11.68057874234836 C 429.05454545454205 11.68057874234836 430.309090909088 11.68057874234836 432.81818181818 11.68057874234836 C 435.327272727272 11.68057874234836 436.581818181818 8.89816360601002 439.09090909091 8.89816360601002 C 441.600000000002 8.89816360601002 442.854545454548 15.01947690595437 445.36363636364 15.01947690595437 C 447.87272727272796 15.01947690595437 449.12727272727204 6.115748469671679 451.63636363636 6.115748469671679 C 454.145454545452 6.115748469671679 455.399999999998 8.89816360601002 457.90909090909 8.89816360601002 C 460.418181818182 8.89816360601002 461.672727272728 8.89816360601002 464.18181818182 8.89816360601002 C 466.690909090912 8.89816360601002 467.94545454545795 3.4446299387868677 470.45454545455 3.3889816360601017 C 472.96363636363805 3.3333333333333357 474.21818181818196 3.3333333333333357 476.72727272727 3.3333333333333357 C 479.23636363636194 3.3333333333333357 480.490909090908 6.115748469671679 483 6.115748469671679 C 485.509090909092 6.115748469671679 486.76363636363806 6.115748469671679 489.27272727273 6.115748469671679 C 491.78181818181804 6.115748469671679 493.03636363636195 3.611574846967173 495.54545454545 3.611574846967173 C 498.05454545454205 3.611574846967173 499.309090909088 6.115748469671679 501.81818181818 6.115748469671679 C 504.327272727272 6.115748469671679 505.581818181818 3.4446299387868677 508.09090909091 3.4446299387868677 C 510.600000000002 3.4446299387868677 511.854545454548 6.393989983305509 514.36363636364 6.393989983305509 C 516.872727272728 6.393989983305509 518.127272727272 3.3333333333333357 520.63636363636 3.3333333333333357 C 523.145454545452 3.3333333333333357 524.399999999998 3.3333333333333357 526.90909090909 3.3333333333333357 C 529.418181818182 3.3333333333333357 530.6727272727279 5.002782415136345 533.18181818182 5.002782415136345 C 535.690909090912 5.002782415136345 536.945454545458 3.889816360601003 539.45454545455 3.889816360601003 C 541.963636363638 3.889816360601003 543.218181818182 8.89816360601002 545.72727272727 8.89816360601002 C 548.236363636362 8.89816360601002 552 3.3333333333333357 552 3.3333333333333357" class="highcharts-graph" data-z-index="1" stroke="#7cb5ec" stroke-width="1" stroke-linejoin="round" stroke-linecap="round"></path></g><g class="highcharts-markers highcharts-series-5 highcharts-areaspline-series highcharts-navigator-series" data-z-index="0.1" opacity="1" transform="translate(24,492) scale(1 1)" clip-path="none"></g></g><text x="300" text-anchor="middle" class="highcharts-title" data-z-index="4" style="color:#333333;font-size:16px;fill:#333333;" y="22">Arcane Energize Historical</text><text x="300" text-anchor="middle" class="highcharts-subtitle" data-z-index="4" style="color:#666666;fill:#666666;" y="49">All indicators</text><text x="10" text-anchor="start" class="highcharts-caption" data-z-index="4" style="color:#666666;fill:#666666;" y="597"></text><g class="highcharts-data-labels highcharts-series-5 highcharts-areaspline-series highcharts-navigator-series" data-z-index="6" opacity="1" transform="translate(24,492) scale(1 1)"></g><g class="highcharts-axis-labels highcharts-xaxis-labels" data-z-index="7"><text x="84.943820224719" style="color:#666666;cursor:default;font-size:11px;fill:#666666;" text-anchor="middle" transform="translate(0,0)" y="462" opacity="1">8. Mar</text><text x="176.1797752809" style="color:#666666;cursor:default;font-size:11px;fill:#666666;" text-anchor="middle" transform="translate(0,0)" y="462" opacity="1">22. Mar</text><text x="267.41573033708" style="color:#666666;cursor:default;font-size:11px;fill:#666666;" text-anchor="middle" transform="translate(0,0)" y="462" opacity="1">5. Apr</text><text x="358.65168539326" style="color:#666666;cursor:default;font-size:11px;fill:#666666;" text-anchor="middle" transform="translate(0,0)" y="462" opacity="1">19. Apr</text><text x="449.88764044944" style="color:#666666;cursor:default;font-size:11px;fill:#666666;" text-anchor="middle" transform="translate(0,0)" y="462" opacity="1">3. May</text><text x="541.12359550562" style="color:#666666;cursor:default;font-size:11px;fill:#666666;" text-anchor="middle" transform="translate(0,0)" y="462" opacity="1">17. May</text></g><g class="highcharts-axis-labels highcharts-xaxis-labels highcharts-navigator-xaxis" data-z-index="7"><text x="52.090909090909" style="color:#999999;cursor:default;font-size:11px;fill:#999999;" text-anchor="start" transform="translate(0,0)" y="528" opacity="1">Mar '21</text><text x="246.54545454545" style="color:#999999;cursor:default;font-size:11px;fill:#999999;" text-anchor="start" transform="translate(0,0)" y="528" opacity="1">Apr '21</text><text x="434.72727272727" style="color:#999999;cursor:default;font-size:11px;fill:#999999;" text-anchor="start" transform="translate(0,0)" y="528" opacity="1">May '21</text></g><g class="highcharts-axis-labels highcharts-yaxis-labels" data-z-index="7"><text x="590" style="color:#666666;cursor:default;font-size:11px;fill:#666666;" text-anchor="end" transform="translate(0,0)" y="152" opacity="1">1000</text><text x="590" style="color:#666666;cursor:default;font-size:11px;fill:#666666;" text-anchor="end" transform="translate(0,0)" y="305" opacity="1">250</text><text x="590" style="color:#666666;cursor:default;font-size:11px;fill:#666666;" text-anchor="end" transform="translate(0,0)" y="254" opacity="1">500</text><text x="590" style="color:#666666;cursor:default;font-size:11px;fill:#666666;" text-anchor="end" transform="translate(0,0)" y="203" opacity="1">750</text><text x="0" style="color:#666666;cursor:default;font-size:11px;fill:#666666;" text-anchor="end" transform="translate(0,0)" y="-9999">1250</text></g><g class="highcharts-axis-labels highcharts-yaxis-labels" data-z-index="7"><text x="590" style="color:#666666;cursor:default;font-size:11px;fill:#666666;" text-anchor="end" transform="translate(0,0)" y="373" opacity="1">0</text><text x="0" style="color:#666666;cursor:default;font-size:11px;fill:#666666;" text-anchor="end" transform="translate(0,0)" y="-9999">320</text></g><g class="highcharts-axis-labels highcharts-yaxis-labels" data-z-index="7"><text x="590" style="color:#666666;cursor:default;font-size:11px;fill:#666666;" text-anchor="end" transform="translate(0,0)" y="441" opacity="1">-320</text><text x="0" style="color:#666666;cursor:default;font-size:11px;fill:#666666;" text-anchor="end" transform="translate(0,0)" y="-9999">320</text></g><g class="highcharts-axis-labels highcharts-yaxis-labels highcharts-navigator-yaxis" data-z-index="7"></g><g class="highcharts-range-selector-group" data-z-index="7" transform="translate(0,58)"><g class="highcharts-range-selector-buttons" transform="translate(0,10)"><text x="10" y="15" style="color:#666666;fill:#666666;" visibility="visible">Zoom</text><g class="highcharts-button highcharts-button-normal" data-z-index="7" style="cursor:pointer;" transform="translate(48,0)" visibility="visible"><title>View 1 month</title><rect fill="#f7f7f7" class="highcharts-button-box" x="0" y="0" width="32" height="22" rx="2" ry="2"></rect><text x="6.6015625" data-z-index="1" y="14" style="color:#333333;font-weight:normal;fill:#333333;">1m</text></g><g class="highcharts-button highcharts-button-disabled" data-z-index="7" style="cursor:pointer;" transform="translate(85,0)" visibility="visible"><title>View 3 months</title><rect fill="#f7f7f7" class="highcharts-button-box" x="0" y="0" width="32" height="22" rx="2" ry="2"></rect><text x="6.6015625" data-z-index="1" y="14" style="color:#cccccc;font-weight:normal;fill:#cccccc;">3m</text></g><g class="highcharts-button highcharts-button-disabled" data-z-index="7" style="cursor:pointer;" transform="translate(122,0)" visibility="visible"><title>View 6 months</title><rect fill="#f7f7f7" class="highcharts-button-box" x="0" y="0" width="32" height="22" rx="2" ry="2"></rect><text x="6.6015625" data-z-index="1" y="14" style="color:#cccccc;font-weight:normal;fill:#cccccc;">6m</text></g><g class="highcharts-button highcharts-button-normal" data-z-index="7" style="cursor:pointer;" transform="translate(159,0)" visibility="visible"><title>View year to date</title><rect fill="#f7f7f7" class="highcharts-button-box" x="0" y="0" width="32" height="22" rx="2" ry="2"></rect><text x="3.4609375" data-z-index="1" y="14" style="color:#333333;font-weight:normal;fill:#333333;">YTD</text></g><g class="highcharts-button highcharts-button-disabled" data-z-index="7" style="cursor:pointer;" transform="translate(196,0)" visibility="visible"><title>View 1 year</title><rect fill="#f7f7f7" class="highcharts-button-box" x="0" y="0" width="32" height="22" rx="2" ry="2"></rect><text x="8.703125" data-z-index="1" y="14" style="color:#cccccc;font-weight:normal;fill:#cccccc;">1y</text></g><g class="highcharts-button highcharts-button-disabled" data-z-index="7" style="cursor:pointer;" transform="translate(233,0)" visibility="visible"><title>View all</title><rect fill="#f7f7f7" class="highcharts-button-box" x="0" y="0" width="32" height="22" rx="2" ry="2"></rect><text x="7.890625" data-z-index="1" y="14" style="color:#cccccc;font-weight:normal;fill:#cccccc;">All</text></g></g><g class="highcharts-input-group" transform="translate(397,10)"><g class="highcharts-label highcharts-range-label" transform="translate(0,0)" style="fill:#666666;"><text x="0" data-z-index="1" y="12" style="color:#666666;font-family:&quot;Lucida Grande&quot;, &quot;Lucida Sans Unicode&quot;, Arial, Helvetica, sans-serif;font-size:12px;fill:#666666;"></text></g><g class="highcharts-label highcharts-range-input" transform="translate(0,0)" style="cursor:pointer;"><rect fill="none" class="highcharts-label-box" x="0.5" y="0.5" width="82" height="21" stroke="none" stroke-width="1"></rect><text x="2" data-z-index="1" y="14" style="color:#335cad;font-family:&quot;Lucida Grande&quot;, &quot;Lucida Sans Unicode&quot;, Arial, Helvetica, sans-serif;font-size:12px;fill:#335cad;">Feb 25, 2021</text></g><g class="highcharts-label highcharts-range-label" transform="translate(87,0)" style="fill:#666666;"><text x="2" data-z-index="1" y="14" style="color:#666666;font-family:&quot;Lucida Grande&quot;, &quot;Lucida Sans Unicode&quot;, Arial, Helvetica, sans-serif;font-size:12px;fill:#666666;"></text></g><g class="highcharts-label highcharts-range-input" transform="translate(107,0)" style="cursor:pointer;"><rect fill="none" class="highcharts-label-box" x="0.5" y="0.5" width="84" height="21" stroke="none" stroke-width="1"></rect><text x="2" data-z-index="1" y="14" style="color:#335cad;font-family:&quot;Lucida Grande&quot;, &quot;Lucida Sans Unicode&quot;, Arial, Helvetica, sans-serif;font-size:12px;fill:#335cad;">May 24, 2021</text></g></g></g><g class="highcharts-legend" data-z-index="7" transform="translate(28,556)"><rect fill="none" class="highcharts-legend-box" rx="0" ry="0" x="0" y="0" width="544" height="29" visibility="visible"></rect><g data-z-index="1"><g><g class="highcharts-legend-item highcharts-candlestick-series highcharts-color-0 highcharts-series-0" data-z-index="1" transform="translate(8,3)"><text x="21" style="color:#333333;cursor:pointer;font-size:12px;font-weight:bold;fill:#333333;" text-anchor="start" data-z-index="2" y="15">Arcane Energize</text><rect x="2" y="4" width="12" height="12" fill="#7cb5ec" rx="6" ry="6" class="highcharts-point" data-z-index="3"></rect></g><g class="highcharts-legend-item highcharts-column-series highcharts-color-1 highcharts-series-1" data-z-index="1" transform="translate(148.40625,3)"><text x="21" y="15" style="color:#333333;cursor:pointer;font-size:12px;font-weight:bold;fill:#333333;" text-anchor="start" data-z-index="2">Volume</text><rect x="2" y="4" width="12" height="12" fill="#434348" rx="6" ry="6" class="highcharts-point" data-z-index="3"></rect></g><g class="highcharts-legend-item highcharts-line-series highcharts-color-3 highcharts-series-2 highcharts-legend-item-hidden" data-z-index="1" transform="translate(236.953125,3)"><path fill="none" d="M 0 11 L 16 11" class="highcharts-graph" stroke="#cccccc" stroke-width="2"></path><text x="21" y="15" style="color:#cccccc;cursor:pointer;font-size:12px;font-weight:bold;fill:#cccccc;" text-anchor="start" data-z-index="2">Average Price</text></g><g class="highcharts-legend-item highcharts-cci-series highcharts-color-7 highcharts-series-3" data-z-index="1" transform="translate(361.4375,3)"><path fill="none" d="M 0 11 L 16 11" class="highcharts-graph" stroke="#2b908f" stroke-width="2"></path><path fill="#2b908f" d="M 8 7 L 12 11 L 8 15 L 4 11 Z" class="highcharts-point" opacity="1"></path><text x="21" y="15" style="color:#333333;cursor:pointer;font-size:12px;font-weight:bold;fill:#333333;" text-anchor="start" data-z-index="2">CCI (14)</text></g><g class="highcharts-legend-item highcharts-vwap-series highcharts-color-8 highcharts-series-4" data-z-index="1" transform="translate(451.828125,3)"><path fill="none" d="M 0 11 L 16 11" class="highcharts-graph" stroke="#f45b5b" stroke-width="2"></path><path fill="#f45b5b" d="M 4 7 L 12 7 L 12 15 L 4 15 Z" class="highcharts-point" opacity="1"></path><text x="21" y="15" style="color:#333333;cursor:pointer;font-size:12px;font-weight:bold;fill:#333333;" text-anchor="start" data-z-index="2">VWAP (30)</text></g></g></g></g><g class="highcharts-navigator" data-z-index="8" visibility="visible"><rect fill="rgb(0,0,0)" fill-opacity="0" class="highcharts-navigator-mask-outside" x="24" y="492" width="0" height="40"></rect><rect fill="rgb(102,133,194)" fill-opacity="0.3" class="highcharts-navigator-mask-inside" style="cursor:ew-resize;" x="24" y="492" width="552" height="40"></rect><rect fill="rgb(0,0,0)" fill-opacity="0" class="highcharts-navigator-mask-outside" x="576" y="492" width="0" height="40"></rect><path fill="none" class="highcharts-navigator-outline" stroke="#cccccc" stroke-width="1" d="M 10 492.5 L 23.5 492.5 L 23.5 546.5 L 575.5 546.5 L 575.5 492.5 L 590 492.5 M 23 492.5 L 576 492.5"></path><path fill="#f2f2f2" d="M -4.5 0.5 L 3.5 0.5 L 3.5 15.5 L -4.5 15.5 L -4.5 0.5 M -1.5 4 L -1.5 12 M 0.5 4 L 0.5 12" data-z-index="6" class="highcharts-navigator-handle highcharts-navigator-handle-right" stroke="#999999" stroke-width="1" style="cursor:ew-resize;" transform="translate(576,504)"></path><path fill="#f2f2f2" d="M -4.5 0.5 L 3.5 0.5 L 3.5 15.5 L -4.5 15.5 L -4.5 0.5 M -1.5 4 L -1.5 12 M 0.5 4 L 0.5 12" data-z-index="7" class="highcharts-navigator-handle highcharts-navigator-handle-left" stroke="#999999" stroke-width="1" style="cursor:ew-resize;" transform="translate(24,504)"></path></g><text x="590" class="highcharts-credits" text-anchor="end" data-z-index="8" style="cursor:pointer;color:#999999;font-size:9px;fill:#999999;" y="595">Highcharts.com</text></svg>